<?xml version="1.0" encoding="UTF-8"?>
<svg xmlns="http://www.w3.org/2000/svg" version="1.1" xmlns:inkscape="http://www.inkscape.org/namespaces/inkscape" xmlns:sodipodi="http://sodipodi.sourceforge.net/DTD/sodipodi-0.dtd" xmlns:svg="http://www.w3.org/2000/svg" viewBox="0 0 1655.4 2224.5">
  <defs>
    <style>
      .cls-1, .cls-2, .cls-3, .cls-4, .cls-5, .cls-6, .cls-7, .cls-8, .cls-9 {
        stroke: #fff;
      }

      .cls-1, .cls-2, .cls-5, .cls-6, .cls-7 {
        stroke-width: .4px;
      }

      .cls-1, .cls-9 {
        fill: #c8e3c3;
      }

      .cls-10, .cls-11, .cls-12 {
        stroke: #000;
      }

      .cls-10, .cls-12, .cls-13, .cls-14 {
        fill: none;
      }

      .cls-15 {
        stroke-width: 3.5px;
      }

      .cls-15, .cls-16 {
        fill: #9ec7f3;
      }

      .cls-15, .cls-16, .cls-17 {
        stroke: #ff0;
        stroke-opacity: 0;
      }

      .cls-18 {
        fill: #3f3f3f;
      }

      .cls-16 {
        stroke-width: 3px;
      }

      .cls-11 {
        fill: #f7d3aa;
        stroke-width: 2px;
      }

      .cls-19 {
        fill: #7e8ecc;
      }

      .cls-19, .cls-20, .cls-21, .cls-22 {
        font-family: Hellix-Medium, Hellix;
        font-size: 17.9px;
        font-weight: 500;
        isolation: isolate;
      }

      .cls-2, .cls-4, .cls-6 {
        fill: #f9f6c2;
      }

      .cls-3, .cls-23, .cls-5 {
        fill: #f9d0cf;
      }

      .cls-12 {
        stroke-width: 1px;
      }

      .cls-20 {
        fill: #53bf3f;
      }

      .cls-21 {
        fill: #fc6b68;
      }

      .cls-22 {
        fill: #f0ac0c;
      }

      .cls-6 {
        stroke-linecap: round;
        stroke-linejoin: round;
      }

      .cls-13 {
        stroke: #580f0f;
        stroke-opacity: 1;
        stroke-width: 1.2px;
      }

      .cls-7, .cls-8 {
        fill: #d0d6ec;
      }

      .cls-14 {
        stroke: #646464;
        stroke-dasharray: 25 6.2 3.1 6.2;
        stroke-opacity: 1;
        stroke-width: 3.1px;
      }

      .cls-17 {
        fill: #fbfed1;
        stroke-width: 3px;
      }
    </style>
  </defs>
  
  <g>
    <g id="Cities">
      <sodipodi:namedview id="namedview634" bordercolor="#000000" borderopacity="0.25" inkscape:current-layer="layer3" inkscape:cx="1001.696" inkscape:cy="853.29656" inkscape:deskcolor="#d1d1d1" inkscape:pagecheckerboard="0" inkscape:pageopacity="0.0" inkscape:showpageshadow="2" inkscape:window-height="705" inkscape:window-maximized="1" inkscape:window-width="1366" inkscape:window-x="-8" inkscape:window-y="-8" inkscape:zoom="0.24258858" pagecolor="#ffffff" showgrid="false"/>
      <polygon id="rect2263" class="cls-16" points="1091.6 1126.2 817.5 1428.1 329.1 1010.6 603.1 708.7 1091.6 1126.2"/>
      <rect id="rect2205" class="cls-17" x="492.6" y="1175.1" width="177.8" height="185.9"/>
      <rect id="rect2203" class="cls-17" x="566.7" y="446.9" width="67.1" height="124.3"/>
      <rect id="rect2201" class="cls-17" x="972.4" y="618.4" width="162.9" height="307.1"/>
      <rect id="rect2197" class="cls-15" x="302.7" y="562.9" width="462.3" height="635.2"/>
      <path id="path1881" class="cls-11" d="M1461.1,2173.7c-1.3-5.3.6-7.4-4-12-6.3-6.3,1.1-7,6-7s-1.9,18.6-2,19Z"/>
      <path id="path2172" class="cls-10" d="M82.2,279.5h0Z"/>
      <path id="path2170" class="cls-10" d="M387.2,180.7h0Z"/>
      <path id="path2173" class="cls-10" d="M393.5,171.9v-7.5h-3.8l3.8,7.5Z"/>
      <path id="path3149" class="cls-10" d="M546,397.2h0Z"/>
      <path id="path3150" class="cls-10" d="M365.6,673.7h0Z"/>
      <path id="path3166" class="cls-10" d="M162.2,813.9h0Z"/>
      <path id="path3173" class="cls-10" d="M328.7,939h0Z"/>
      <path id="path3175" class="cls-10" d="M342.7,930.3h0Z"/>
      <g id="g5219">
        <g id="g4167">
          <path id="path3168" class="cls-7" d="M158.4,821.4l3.8-8.8-8.9-11.3,1.3-16.3-7.6-8.8,1.3-10,25.4-7.5,15.3-7.5-1.3-10,24.1,1.3,3.8-3.8-3.8-6.3-6.4,3.8-8.9-5,16.5-8.8,19.1,6.3,1.3,10,7.6,2.5,7.6-8.8,6.4,5-1.3,13.8,11.4,5,28-15-1.3-2.5,14,5,7.6,6.3,10.2-1.3,8.9,8.8,10.2-3.8v12.5l1.3,6.3,10.2,5h6.4v7.5l-2.5,6.3-14,1.3-7.6,6.3h5.1l7.6,7.5-11.4,8.8,1.3,6.3h0l1.3,33.8-12.7,8.8-2.5,3.8h0l6.4,12.5,10.2-2.5,1.3,7.5,2.5,6.3,3.8,3.8-16.5,6.3-5.1,5,6.4,5-7.6,3.8,5.1,3.8-5.1,3.8,14,2.5,2.5,5-10.2,2.5-1.3,5h-12.7l-17.8-7.5-11.4-10-5.1-2.5-8.9-2.5v-5l10.2-2.5,1.3-26.3-8.9-18.8-10.2-1.3-5.1,7.5-19.1-1.3-11.4-6.3-8.9,7.5-11.4-6.3-11.4-11.3-5.1,1.3-1.3-6.3-11.4-2.5-12.7-6.3-11.4-16.3Z"/>
          <g id="g4150">
            <g id="g3158">
              <g id="g3153">
                <path id="path4167" class="cls-5" d="M296.9,161.9l6.4-6.3,6.4,1.3,6.4,5-5.1,13.8,7.6,2.5,6.4,7.5,7.6-1.3-1.3-8.8-6.4-3.8,7.6-8.8,14,1.3,6.4,8.8,5.1,6.3,3.8,6.3,2.5-3.8h11.4l2.5,2.5,7.6-3.8v8.8l1.3,15,8.9,6.3,8.9,5,2.5,6.3-1.3,7.5-2.5,18.8,3.8,12.5,2.5,13.8,10.2,8.8,11.4,7.5,8.9,7.5-3.8,10-3.8,8.8-3.8,5-7.6-8.8-12.7,11.3,1.3,13.8-10.2-10-6.4,12.5-20.3-5-14,3.8,5.1,12.5-6.4,7.5-3.8,6.3-11.4-1.3-10.2-8.8h-6.4v-13.8l-10.2-2.5v-30l-5.1-6.3-5.1-8.8-14-3.8,1.3-6.3-3.8-2.5v-10l-1.3-3.8,5.1-6.3-3.8,6.3,7.6-11.3,7.6-3.8v-21.3l3.8-7.5v-5l-1.3-17.5,3.8-7.5-14-15v-17.5Z"/>
                <path id="path2169" class="cls-6" d="M158.4,108.1l-2.5-8.8-2.5-6.3,6.4-8.8,5.1-11.3,5.1-15,10.2-15,2.5,16.3,1.3,8.8,10.2,10,10.2-2.5,2.5,8.8,10.2,2.5,1.3,7.5,10.2,3.8,1.3,5,10.2,2.5,6.4-7.5,3.8,10,5.1,6.3,7.6,5,2.5,5,6.4-2.5,3.8,3.8-3.8,8.8,3.8,3.8,5.1,3.8v2.5l10.2-1.3v5l2.5,5h-16.5l1.3,11.3-11.4,2.5-1.3,5,10.2-1.3,8.9-3.8,8.9-7.5,6.4,5-1.3,11.3,5.1,8.8,6.4,8.8-2.5,8.8v23.8l-3.8,10,2.5,12.5-6.4,8.8-8.9,12.5-10.2-2.5-14-1.3-5.1-10-6.4-5,7.6-13.8-5.1-10-6.4-7.5-10.2-3.8-5.1-5-3.8-7.5-6.4,2.5s-1.6-1.3-5.1-2.5-8.9-2.5-8.9-2.5l-6.4-2.5-6.4,5-10.2-2.5-8.9-3.8-7.6,5-1.3,6.3s-4.1-.6-8.9-2.5-10.2-5-10.2-5l-2.5-3.8,8.9-5,5.1-6.3-3.8-7.5v-17.5l14-1.3,5.1-5,5.1-7.5,11.4-3.8,2.5-8.8,6.4,10,6.4-3.8,5.1-8.8-5.1-6.3-5.1-7.5v-8.8l-8.9-7.5-11.4,2.5-6.4-10-6.4,5-7.6-1.3-6.4,10Z"/>
                <path id="path2192" class="cls-5" d="M91.1,347.1l-6.4-11.3-7.6-10,5.1-11.3-12.7-2.5,3.8-20,8.9-6.3-1.3-7.5,5.1-10,15.3-10,5.1-13.8-11.4-6.3,6.4-11.3,2.5-11.3,14-5v-12.5l19.1,2.5,14-3.8,19.1,12.5,3.8-10,13-2.7,11.2,3.9,10.2-1.3,25.4,6.3,10.2,11.3,8.9,3.8,12.7,15-8.9,12.5,2.5,8.8-6.4,6.3-2.5,10h-8.9l-6.4-10-3.8,7.5h-7.6l-3.8,13.8,5.1,5-6.4,1.3-7.6,12.5-2.5,7.5-3.8,7.5,5.1,6.3-7.6,1.3h-5.1v-6.3l-16.5,1.3v10h-6.4l-1.3,12.5,7.6,3.8-5.1,5v11.3l6.4,3.8,7.6,6.3-1.3,8.8-8.9,1.3-7.6-7.5-6.4-3.8v-5l-8.9-8.8h-7.6l-2.5-8.8-14-7.5,1.3-6.3-1.3-3.8-11.4,3.8-7.6,6.3-6.4-7.5-15.3,12.5Z"/>
                <path id="path2175" class="cls-7" d="M383.4,165.7l-3.8-10-10.2,7.5-5.1-7.5,7.6-6.3-3.8-6.3-6.4-1.3-3.8,3.8-12.7-6.3-2.5-11.3,12.7-18.8,11.4-3.8v7.5l3.8,2.5,11.4,3.8,7.6,7.5,16.5-1.3,3.8,8.8-7.6,1.3,6.4,7.5-6.4,7.5h15.3l5.1,8.8-1.3,3.8h-7.6l-7.6-7.5v11.3l6.4,7.5,10.2,11.3,1.3,7.5-3.8,3.8,11.4,22.5,20.3,3.8,10.2,10,1.3,7.5-5.1,2.5,1.3,2.5,8.9,1.3,10.2,5,8.9,10,16.5,3.8,7.6-13.8,5.1,1.3,1.3,6.3,6.4,2.5,5.1,5,5.1-3.8-2.5,23.8,10.2,1.3,14,15,2.5-1.3v7.5h11.4l1.3,3.8-11.4,15-6.4,1.3,1.3,15-14,10-3.8-1.3-1.3-11.3-3.8,1.3-2.5,6.3-10.2-1.3-7.6-2.5-1.3,2.5-25.4-15s6.4-7.5,0-8.8-12.7-5-12.7-5v-8.8l-7.6,1.3-11.4-8.8-12.7-5-7.6-8.8-16.3-5.3-7.8-12.2-6.4-28.8,3.8-18.8v-7.5l-20.3-12.5,1.3-25,10.2-3.8-6.4-8.8-7.6-1.3Z"/>
                <path id="path2174" class="cls-1" d="M258.8,254.5l-6.4,6.3-2.5,10-8.9,2.5-7.6-11.3-2.5,8.8h-8.9l-3.8,13.8,6.4,3.8v3.8l-7.6-1.3-11.4,25,3.8,6.3-2.5,3.8-10.2,1.3-1.3-7.5-3.8,2.5-14-2.5,2.5,12.5-6.4-2.5-1.3,11.3,6.4,3.8-3.8,8.8,1.3,8.8,12.7,10v10l5.1,3.8-1.3,11.3-5.1,2.5v10l7.6,5h11.4v10l8.9,6.3,3.8,8.8,15.3,1.3,8.9-2.5,2.5,6.3,11.4,1.3v5l17.8,2.5,5.1-5,6.4-3.8s15.3,6.3,11.4,1.3-3.8-13.8-3.8-13.8l7.6,7.5,7.6-7.5v12.5l6.4,2.5,5.1,11.3-5.1,12.5-6.4,3.8,7.6,3.8,1.3,10,16.5,16.3,3.8-6.3,3.8,5v5l31.8,2.5,3.8,5-1.3,8.8,14,7.5,12.7-2.5,6.4,10,17.8-2.5,38.1,8.8,10.2-5v-8.8l-10.2-11.3-1.3-11.3-14-11.3,2.5-5-3.8-2.5h-6.4l-1.3-7.5h-11.4l-7.6-8.8,3.8-2.5-12.7-7.5-8.9-35-5.1-12.5-19.1-3.8-8.9-20-17.8-11.3-2.5-17.5-14-3.8-5.1-5-7.6-1.3,3.8-13.8h-12.7l-1.3-30-10.2-17.5-11.4-2.5-3.8-10v-11.3l-21.6-3.8-8.9-11.3Z"/>
                <path id="path2176" class="cls-2" d="M466,519.8v-10l-16.5-11.3,3.8-6.3-10.2-2.5v-5l-12.7-1.3-10.2-8.8,6.4-1.3-16.5-8.8-10.2-46.3-20.3-5-8.9-20-15.3-8.8-5.1-20,12.7-12.5-3.8-12.5,14-3.8,21.6,3.8,3.8-10,12.7,10-1.3-15,12.7-12.5,5.1,10,15.3-22.5,19.1,12.5h8.9v8.8l14,5,5.1,11.3,20.3,12.5,2.5-5,15.3,7.5,3.8,3.8-1.3,3.8,11.4,2.5,3.8,5-11.4,5,10.2,3.8,3.8,5v8.8l-3.8,2.5v6.3l7.6,3.8,1.3,3.8-5.1,3.8-10.2,7.5,3.8,6.3-6.4,3.8-3.8-6.3-7.6-2.5-1.3,3.8-10.2-1.3-5.1,6.3,12.7,11.3-1.3,8.8,7.6,5-8.9,11.3-8.9,1.3-8.9,10-12.7,23.8v2.5l3.8,6.3-6.4,2.5,14,10h-33Z"/>
                <path id="path3151" class="cls-1" d="M547.3,388.4v-8.8l-11.4-10,11.4-1.3-7.6-7.5h-8.9l-3.8-11.3,8.9-7.5v8.8l6.4,5,11.4-10,1.3-16.3,16.5-13.8-1.3-5-11.4-1.3v-8.8l-5.1,3.8-12.7-17.5h-10.2l3.8-22.5h17.8l2.5,5-1.3,6.3,7.6,7.5,2.5-5,6.4-2.5v-6.3l-6.4-1.3-1.3-11.3,14-10h11.4v-6.3l-3.8-2.5-1.3-10-3.8,1.3-2.5,5-2.5,3.8-5.1-2.5,5.1-8.8-2.5-5-2.5-5v-6.3h5.1l7.6-8.8,2.5-6.3-1.3-7.5,3.8-3.8h11.4l7.6,6.3-5.1,5-1.3,6.3-1.3,2.5,3.8,7.5,5.1-3.8h14l3.8,11.3,12.7,21.3-5.1,2.5v7.5l7.6,2.5,6.4,18.8h12.7l-12.7,11.3,12.7,3.8,8.9,3.8v3.8l-6.4,6.3-11.4,10,1.3,13.8-6.4,8.8,5.1,8.8,5.1,8.8-7.6,7.5v7.5l6.4,1.3-2.5,10,11.4,8.8v32.5l-6.4,12.5-1.3,20-2.5,11.3-3.8,3.8-1.3,13.8-6.4-3.8-8.9-5v7.5l5.1,3.8-11.4,8.8-5.1-1.3v-5l-2.5,2.5-10.2-1.3v-6.3l5.1-2.5-5.1-1.3v-6.3l3.8-10-15.3-3.8,8.9-3.8-5.1-7.5v-5l-11.4-10h-8.9l-2.5,6.3-3.8-10-15.3-7.5-5.1-13.8-6.4-6.3v-10Z"/>
                <path id="path2177" class="cls-7" d="M443.1,539.8l21.6,7.5,10.2-5,2.5-8.8-10.2-13.8,29.2,1.3-11.4-11.3,8.9-1.3-6.4-10,17.8-27.5,6.4-7.5,6.4,2.5,10.2-13.8-8.9-5,1.3-11.3-11.4-8.8,3.8-6.3,10.2-3.8,10.2,2.5,1.3,10,10.2-5-6.4-8.8,15.3-8.8,10.2,13.8,8.9,6.3,5.1,11.3,3.8-7.5h7.6l10.2,8.8v5l6.4,6.3-12.7,6.3,19.1,3.8-3.8,3.8v11.3l2.5,2.5-3.8,1.3v6.3l10.2,1.3,5.1-5v6.3l3.8,2.5v20l6.4,13.8,1.3,8.8-8.9,12.5-6.4-1.3-8.9,7.5-1.3,11.3-8.9,12.5-7.6,8.8v6.3l3.8,6.3,5.1,1.3-6.4,3.8-2.5,7.5-2.5-5-14-1.3-11.4,3.8-2.5,6.3h-6.4l-2.5-5-19.1-3.8-5.1-6.3-3.8-1.3-3.8,5-6.4-3.8-3.8-1.3-2.5,5-10.2-1.3-3.8-12.5h-5.1l-3.8-3.8-14-1.3-5.1,6.3-7.6-6.3v-3.8l-10.2-13.8h-3.8l-5.1-6.3-2.5-6.3,6.4-13.8Z"/>
                <path id="path3152" class="cls-5" d="M378.3,666.2l-1.3-22.5,2.5-2.5,1.3-27.5-7.6-7.5h-6.4l-2.5,5h-5.1l-5.1-10v-6.3l3.8-1.3,1.3-18.8-7.6-1.3,3.8-2.5-5.1-10,6.4-6.3-1.3-8.8,2.5-17.5,15.3-5,5.1,1.3,11.4,8.8,14-2.5,6.4,8.8,17.8-2.5,14,5-5.1,10,6.4,10,6.4,5,8.9,12.5-1.3,3.8,11.4,7.5v5l-7.6,6.3-5.1,2.5,5.1,7.5-7.6,2.5,2.5,5-7.6-3.8-6.4,17.5h-5.1v10l3.8,3.8-1.3,5-6.4-1.3v-3.8h-14l-1.3-8.8-8.9-3.8-1.3,17.5h-3.8l1.3,5,7.6,5v3.8l-11.4,7.5-3.8,2.5-6.4-5-6.4,7.5v-5h-6.4v5l-2.5-3.8h-8.9v-7.5l11.4-1.3Z"/>
                <path id="path2179" class="cls-2" d="M365.6,676.2v-8.8l12.7-1.3-2.5-22.5,5.1-1.3-1.3-26.3-7.6-12.5h-2.5l-5.1,6.3-6.4,1.3-6.4-11.3v-5h5.1l3.8-20h-14l7.6-2.5-7.6-10,5.1-6.3-10.2-1.3h-5.1l-16.5-10-3.8,8.8-8.9,6.3h-2.5l-6.4-7.5-6.4,3.8-15.3-8.8-8.9-2.5-2.5,5-24.1-1.3-6.4,12.5h-6.4v-7.5l-3.8-3.8-3.8,5-5.1-6.3h-7.6l-6.4-5-2.5,5-8.9,3.8h0l-1.3,10,10.2,5v3.8l-8.9,3.8v17.5l2.5,3.8-6.4-1.3-1.3,11.3,6.4,5-5.1,6.3-6.4,3.8v7.5l-6.4,1.3v5h8.9l7.6,7.5,1.3,13.8h3.8v-5l1.3-5h5.1l8.9,8.8v5l-8.9,15-6.4,2.5-10.2,1.3-1.3,3.8-11.4-2.5-3.8,7.5,8.9,5,5.1-2.5h15.3l-5.1,7.5,6.4,2.5,12.7,1.3,3.8,7.5-6.4,1.3-6.4-2.5h-5.1l-1.3,3.8,8.9,2.5,7.6,3.8,1.3,3.8,6.4,3.8,14,3.8v8.8l6.4,2.5,7.6-10,6.4,8.8-1.3,13.8,5.1,5,1.3-2.5h6.4l7.6-3.8,17.8-12.5h5.1l1.3,5,8.9-1.3h0l6.4,7.5,2.5-2.5h8.9l7.6,8.8,1.3-2.5,7.6-1.3,3.8,5v12.5l6.4,5,6.4,1.3,14,1.3v7.5l2.5,2.5h5.1l1.3-3.8v5h7.6l2.5,7.5,5.1-6.3,3.8,1.3,8.9-7.5v-12.5l-3.8-2.5v-8.8l10.2-15,3.8-6.3-1.3-11.3,2.5-10-6.4,5-14,1.3,1.3-11.3-8.9-15h-2.5l-10.2,10-3.8-1.3-11.4,10-1.3-27.5-5.1-2.5,7.6-10Z"/>
                <path id="path2180" class="cls-1" d="M213.1,720l-7.6-6.3-8.9-2.5,1.3-5,17.8,3.8-3.8-7.5h-11.4l-11.4-5,6.4-7.5-11.4-2.5-5.1,5-10.2-5,2.5-8.8,10.2,3.8,2.5-5,14,1.3,3.8-5,10.2-16.3-12.7-12.5-3.8,11.3-7.6,1.3,2.5-12.5-7.6-8.8-7.6-1.3-3.8,8.8-15.3-1.3-2.5,10h-3.8l-1.3,5h8.9v6.3l-5.1,7.5-2.5-7.5h0l-6.4,6.3-2.5-6.3-7.6-5-3.8,7.5,3.8-12.5-12.7-8.8,1.3-7.5-8.9-1.3-1.3,3.8h-10.2l-10.2,6.3-1.3,6.3,6.4,6.3,2.5,17.5-22.9,15,2.5,10-7.6-1.3-3.8,3.8-1.3,10-1.3,8.8-1.3,6.3-6.4-1.3-6.4,3.8,3.8,3.8,6.4,5-1.3,5,14,8.8-1.3,7.5,7.6,7.5-3.8,11.3,5.1,10,6.4,7.5h8.9l7.6,7.5,5.1,6.3,8.9-1.3,31.8,10h12.7v-6.3h-1.3l-6.4-10v-17.5l-6.4-7.5v-11.3l15.3-7.5,10.2-1.3h0l14-8.8-1.3-10h26.7l2.5-2.5-5.1-3.8-5.1,2.5-8.9-5,16.5-11.3Z"/>
              </g>
              <path id="path2184" class="cls-1" d="M364.3,713.8l-1.3-26.3-5.1-3.8,10.2-8.8h7.6l3.8,8.8,1.3-8.8h3.8v7.5l8.9-11.3,6.4,6.3,15.3-12.5-12.7-12.5,6.4,2.5,1.3-18.8,7.6,3.8,1.3,7.5,14,1.3v5h10.2l-1.3-7.5-6.4-3.8v-7.5l6.4,1.3,7.6-20,8.9,5-3.8-7.5h8.9l-6.4-8.8,12.7-7.5,1.3-8.8-5.1-1.3,5.1-5,14,2.5,8.9,5,2.5,11.3,11.4,2.5,2.5-6.3,11.4,6.3,3.8-7.5,10.2,10,15.3,2.5,6.4,6.3h5.1l3.8-8.8,21.6-2.5,3.8,6.3,3.8,1.3-3.8,10h5.1l2.5,8.8-5.1,7.5,5.1,3.8-2.5,6.3,5.1,7.5,1.3,8.8-6.4,1.3v11.3l10.2,11.3h8.9l3.8,6.3-2.5,3.8h-17.8l-2.5,3.8v7.5h-2.5v8.8l-12.7,17.5-8.9-8.8-6.4,3.8-5.1-5v6.3l-5.1,5-1.3,10,5.1,2.5-2.5,6.3,1.3,2.5,7.6-1.3,7.6,6.3-5.1,6.3,8.9,5-5.1,6.3h-7.6l-1.3,5-7.6-2.5-5.1-7.5-1.3,6.3h-7.6l-3.8-5-10.2,5-8.9,1.3-10.2-6.3-25.4,1.3v-6.3l-6.4-8.8h-3.8l-7.6-7.5-10.2-1.3-5.1,3.8,2.5,10-1.3,3.8-14-11.3v-5l5.1-3.8-2.5-6.3-7.6,6.3-3.8-3.8-6.4,13.8-8.9-17.5,6.4-7.5-1.3-18.8-6.4,6.3-12.7-1.3,1.3-6.3-11.4-18.8-8.9,10-3.8-5-12.7,11.3Z"/>
            </g>
            <path id="path3179" class="cls-5" d="M331.3,937.8v-6.3l12.7-1.3-2.5-6.3-16.5-2.5,5.1-5-5.1-2.5,7.6-3.8-5.1-7.5,20.3-7.5-6.4-10v-7.5l-12.7,1.3-5.1-12.5,16.5-11.3-2.5-40,12.7-8.8-8.9-8.8h-7.6l11.4-7.5,12.7,2.5,5.1-10-1.3-5h8.9l-1.3,6.3,7.6,6.3,10.2,1.3,8.9,1.3,11.4-7.5,1.3-13.8h-5.1v-11.3l10.2-12.5,8.9,15,5.1-12.5,5.1,2.5,7.6-7.5,3.8,5-7.6,8.8,15.3,11.3,1.3-5-5.1-6.3,6.4-6.3,11.4,2.5,7.6,6.3,7.6,6.3,3.8,8.8,3.8,3.8-21.6,28.8-12.7,15,7.6,3.8,2.5,7.5,6.4,3.8,1.3,23.8-10.2,10v6.3l-6.4-1.3-11.4,22.5-8.9,5h-7.6l-3.8,8.8-11.4,8.8-22.9,5-5.1-5-3.8-1.3-5.1,8.8v8.8l-15.3-1.3-12.7-3.8-5.1,6.3-11.4-2.5Z"/>
          </g>
        </g>
        <path id="path4248" class="cls-2" d="M471.1,858.9v-18.8l-6.4-5v-5l-8.9-7.5,34.3-41.3-2.5-5h22.9l8.9,7.5h8.9l11.4-6.3,10.2,5,2.5-8.8,5.1,10,8.9,2.5v-6.3h6.4l6.4-5-10.2-6.3,5.1-5-8.9-7.5-7.6,1.3-2.5-1.3,6.4-6.3-6.4-3.8,3.8-13.8v-8.8l6.4,6.3,7.6-2.5,7.6,7.5,16.5-17.5-2.5-7.5,2.5-12.5,15.3,1.3,5.1,6.3,3.8,3.8,2.5-5h3.8l6.4,6.3,3.8,1.3,1.3,7.5-7.6,1.3-1.3,3.8,7.6,6.3v18.8l-2.5,10h-7.6l6.4,7.5,1.3,8.8-6.4,3.8-1.3,7.5-5.1-1.3-6.4,7.5,6.4,8.8v10l-8.9,6.3-3.8,6.3,17.8,18.8-7.6,7.5,1.3,5,8.9,6.3,6.4,10-2.5,36.3,3.8,5-3.8,3.8v5l3.8,1.3,5.1,5v3.8l3.8,3.8-1.3,15-8.9,17.5-16.5,6.3h-8.9l-10.2-12.5-15.3-11.3h-11.4l-16.5-13.8-12.7-2.5-1.3-6.3,6.4-2.5,1.3-8.8-5.1-2.5,3.8-2.5v-5l-5.1-6.3-3.8,2.5-11.4,2.5-3.8-2.5v-8.8l5.1-2.5s0-7.5-5.1-7.5h-6.4l-3.8,6.3h-2.5l-2.5-7.5v-10l-11.4-7.5-10.2-2.5-17.8-3.8Z"/>
      </g>
      <path id="path5240" class="cls-8" d="M375.7,940.3v-8.8l5.1-8.8,6.4,6.3,25.4-5,12.7-10,2.5-10,7.6,2.5,11.4-6.3,7.6-22.5,7.6,3.8,1.3-10,10.2-10,26.7,6.3,8.9,3.8v12.5l3.8,7.5,8.9-5,7.6,2.5-5.1,3.8v10l5.1,3.8h11.4l5.1-6.3,5.1,8.8-7.6,6.3h6.4v7.5l-7.6,3.8,2.5,8.8,11.4,1.3,16.5,13.8,11.4-1.3,16.5,13.8,8.9,12.5-12.7,2.5v7.5l-5.1,1.3,1.3,11.3,6.4,7.5,10.2-2.5,5.1,15h-5.1l-10.2-11.3,3.8,15,15.3,2.5,11.4,7.5-11.4,3.8-6.4,3.8-15.3-1.3-15.2-6.3-17.8,5-11.4,5-30.5-18.8-5.1-12.5-15.2-16.3h-6.4l5.1,12.5-6.4,7.5-14-2.5-8.9-12.5-12.7-13.8-5.1-2.5h-17.8l-7.6-5h-14l-7.6-1.3-10.2,8.8v-6.3l-10.2-3.8-5.1-10,2.5-16.3-7.6-8.8h0Z"/>
      <path id="path4161" class="cls-10" d="M614.7,1059.2h0Z"/>
      <g id="g7076">
        <path id="path3188" class="cls-2" d="M271.5,916.5h14l12.7,11.3,17.8,10,14,1.3,14,2.5,5.1-8.8,10.2,6.3h16.5l7.6,13.8-2.5,11.3,3.8,11.3,5.1,1.3,6.4,1.3v7.5l11.4,5,3.8,10,5.1-6.3,6.4,3.8,7.6,8.8,17.8-1.3-12.7-11.3,15.3-3.8,14,10-10.2,3.8,1.3,7.5,11.4,8.8,7.6,5,7.6-1.3,5.1,2.5-1.3,11.3-1.3,17.5-8.9,10,2.5,6.3h-8.9l-15.3-10-3.8-1.3-2.5,7.5h-11.4l-6.4,8.8-7.6-2.5-10.2,8.8-1.3-11.3h-7.6l1.3-7.5-8.9-2.5-1.3,5,6.4,8.8-8.9,2.5-.7,8.5-9.4,4v-16.3l-1.3-11.3-5.1-6.3-5.1,3.8-6.4,8.8-6.4-15-10.2-2.5,6.4-7.5-11.4-2.5-8.9-6.3,5.1-5v-5l-7.6,1.3-5.1-3.8,8.9-5-3.8-10-5.1-6.3-8.9,5-3.8-12.5-3.8-5h-3.8v10l-14-15h7.6l5.1-2.5-7.6-7.5-6.4,1.3-3.8,2.5-1.3-7.5,8.9-2.5-11.4-6.3,7.6-3.8-15.3-11.3-3.8-30Z"/>
        <path id="path4163" class="cls-1" d="M485,1042.9v-16.3l-6.4-5,7.6-3.8,17.8,1.3,10.2,1.3,6.4,7.5v8.8l2.5,8.8,19.1,11.3-5.1-13.8,10.2-1.3,2.5,6.3,6.4,3.8,17.8-11.3,6.4,3.8-1.3,6.3,6.4,7.5v-10l28-1.3,14,2.5,8.9,11.3,1.3,13.8-11.4-8.8-8.9-11.3h-30.5l-1.3,5h25.4l12.7,8.8,16.5,12.5,6.4,5,5.1,2.5-6.4,2.5-1.3,6.3h-12.7l-1.3,6.3-8.9-2.5v17.5l10.2,6.3-2.5,6.3h-8.9l-2.5-6.3-2.5,6.3-12.7-1.3-2.5-15-15.3,13.8h-6.4l-2.5-11.3h-5.1l-2.5,5-12.7-6.3-2.5,5,7.6,5-7.6,3.8-5.1-1.3v-6.3l-10.2-1.3-5.1-13.8-12.7-8.8-1.3-7.5-17.8-1.3-2.5,3.8-15.3-13.8-2.5-7.5-3.8-7.5,8.9-8.8v-12.5Z"/>
        <path id="path5134" class="cls-5" d="M290.6,985.3l15.3,16.3,1.3-12.5,7.6,7.5v7.5l3.8,5,7.6-7.5,8.9,13.8-11.4,7.5,7.6,6.3,7.6-2.5,2.5,5-8.9,3.8v2.5l-1.3,7.5-6.4-3.8-5.1,7.5,1.3,11.3-11.4,1.3.3,23.8-10.5,10.9-9.8,1.6-6.7,5-5.1-1.3-16.5,13.8-2.5,3.8-18.4.9,1.9-13.5-8.9-2.5-2.5-5,6.4-3.8,2.5-8.8-6.4-2.5,1.3-13.8,6.4-6.3-8.9-12.5,6.4,2.5,7.6-7.5v-2.5l-3.8-3.8,1.3-13.8-2.5-2.5,7.6-3.8,6.4,2.5v7.5l4.4-5.5,7.7-.4,13.3-14.1,8.3-.9,2.9-7.5-2.2-10.3,1.3-6.3Z"/>
        <path id="path6105" class="cls-7" d="M256.3,1119.2l21.6-16.3,6.4,1.3,5.1-6.3,10.6-2.3,8.8-10.4.9-23.6,10.1-1.4-2.5-11.1,7.6-6.3,6.4,5,2.6-11.3,6.3,6.3,14.7,1.3-8.3,7.5,10.2,3.8,2.7,5.8,7.5,9.2,2.5-6.3,6.4-6.3,5.1,6.3,1.4,28.4-.2,16.6-3.8,13.8-3.3,4.4-8.2,1.9v3.8l5.1,3.8-1.3,6.3-14-2.5-7.6,2.5,6,1.4,4.2,8.6-1.3,17.5-6.4,2.5,7.4,4.2,2.8,5.8-13.7,10.5-11.7.4-1.3,11.6h-8.9l-7.3-5.7-8,3.2h-11.4l-3.8-3.8v-15l3.8-11.3,7.6,2.5-1-8.3,3-7.4-3.3-3.3-6.4-1,5.5,5.4-9.3,7.1-5.1-5,1.3-5-4.4-4-9.6-4.8-16.5-12.5,3.8-8.8-8.9-8.8Z"/>
      </g>
      <path id="path7082" class="cls-3" d="M296.9,1200.6l15.2,3.8,7.6-5,5.1,6.3,10.2,1.3,1.3-13.8,8.9,1.3,16.5-10-1.3-6.3-10.2-6.3,5.1-2.5,2.5-17.5-3.8-6.3-6.4-3.8,7.6-3.8,15.3,6.3,1.3-6.3-5.1-6.3-1.3-3.8h7.6l10.2-17.5-1.3-20,8.9-3.8,3.8-8.8h6.4v-5l-6.4-7.5,1.3-5,7.6,3.8v6.3l7.6,2.5,1.3,7.5h5.1l5.1-7.5,8.9,3.8,6.4-8.8h11.4l3.8-7.5,15.3,10.7,10.2,1.8,1.3,5,17.8,15,1.3,7.5-2.5,3.8h-3.8l-2.5,5,3.8,3.8,1.3,5-3.8,1.3v7.5l5.1,2.5-1.3,2.5h-6.4l-6.4,10,1.3,13.8-1.3,13.8-3.8,6.3-5.1,5-6.4-1.3-7.6,15-1.3,8.8,5.1,1.3-5.1,3.8v6.3l-6.4,6.3-5.1-5-2.5,3.8,3.8,10-8.9,3.8-21.6,3.8-6.4-15h-10.2l-5.1-11.3,7.6-5-12.7-5-5.1-3.8-3.8,3.8,7.6,10h-12.7l-10.2,5,7.6,7.5,7.6,3.8-10.2,1.3-16.5-5-3.8,1.3,7.6,5-3.8,8.8-3.8,6.3-1.3,6.3h-21.6l-12.7-6.3v8.8l-12.7-1.3-2.5-6.3-10.2-1.3-6.4-3.8v-6.3l-7.6-5v-6.3l2.5-5,10.2-2.5-1.3-6.3,8.9-8.8h0Z"/>
      <path id="path8053" class="cls-8" d="M464.7,1205.6l-6.4-3.8v-6.3l8.9-15,6.4,1.3,10.2-12.5v-15l-1.3-12.5,3.8-10h8.9l2.5-3.8-6.4-1.3v-8.8h3.8v-5l-5.1-5,1.3-5,6.4,2.5,2.5-5-1.3-7.5,1.3-3.8,16.5,1.3,2.5,6.3,12.7,10,3.8,12.5,5.1,6.3v8.8l5.1,6.3,5.1,2.5v5h-6.4l-5.1,3.8,1.3,3.8h19.1l10.2,6.3,2.5,8.8h3.8v13.8l8.9,13.8,2.5,7.5-11.4-7.5-5.1,5,6.4,2.5v16.3h-15.3l-6.4,11.3-6.4,2.5-8.9-11.3-5.1,2.5-7.6,10-5.1,2.5h-2.5l-6.4-7.5-3.8,1.3-7.6-8.8h-1.3l-2.5,2.5h-6.4l-6.4-5-1.3-7.5-7.6,1.3-12.7-10h0Z"/>
      <path id="path2204" class="cls-4" d="M349.1,1248.1l10.2-17.5-10.2-8.8h7.6l12.7,6.3h14l-16.5-12.5,6.4-5,17.8,1.3-8.9-10,3.8-6.3,2.5,5,15.2,5-6.4,5,3.8,10,11.4,1.3,5.1,15,15.2-2.5,16.5-3.8-5.1-10,1.3-5,6.4,5,7.6-6.3-2.5-7.5,5.1-2.5,16.5,11.3,6.4-1.3,1.3,6.3,7.6,7.5,6.4,1.3,3.8-5,6.4,8.8,11.4,3.8-3.8,6.3,6.4,3.8-3.8,3.8,1.3,15-3.8,5,2.5,11.3-11.4,1.3v3.8l6.4,2.5,1.3,5-3.8,1.3,1.3,8.8,11.4-7.5h3.8l-1.3,12.5,7.6,2.5v2.5h11.4l2.5,3.8-2.5,8.8,7.6,12.5s6.4,8.8,1.3,8.8h-7.6l-8.9-2.5-3.8-3.8-6.4-15-3.8-3.8-8.9,6.3,2.5,8.8-7.6,11.3-16.5,7.5-1.3,6.3,5.1,6.3-1.3,16.3-1.3,5-14-6.3v-6.3l-5.1-1.3-1.3,3.8-11.4,10-7.6-1.3-11.4,6.3h-7.6l-8.9-6.3-1.3,1.3-5.1-3.8-1.3-6.3,7.6-1.3-8.9-11.3,7.6,1.3,1.3-3.8-5.1-8.8-10.2-6.3-1.3,7.5h-19.7l-8.3-6.3-6.4-3.8h0l5.1,11.9-5.1,5-19.1-2.5-5.1-5.6-6.4,3.8h-5.1l3.8-7.5-15.3-6.3,2.5-22.5,7.6-2.5-3.8-6.3v-6.3l-5.1-3.8,10.2-16.3,12.7-5-1.3-10,12.7-8.8,5.1,3.8,3.8-7.5-5.1-2.5-1.3-6.3-11.4,8.8-6.4-3.8-2.5-10h0Z"/>
      <path id="path2205" class="cls-9" d="M521.9,1248.1l-6.4-8.8,10.2-1.3,10.2-10,3.8-3.8,7.6,11.3,8.9-3.8,6.4-8.8h14l3.8,10h10.2l1.3,2.5-8.9,10,3.8,7.5h14l6.4,7.5v5l-3.8,6.3,3.8,1.3,8.9-6.3,10.2,1.3-1.3,8.8-3.8,8.8-5.1,10h-6.4l-10.2-2.5,16.5,13.8,5.1,7.5,5.1,12.5,14,8.8v6.3l-3.8,1.3-11.4,2.5-29.2-11.3-10.2,11.3-16.5-8.8-5.1,7.5h-3.8l-14-16.3,5.1-7.5-3.8-7.5-12.7-1.3-6.4-6.3,2.5-10-5.1-1.3-11.4,11.3,2.5-10-1.3-7.5-7.6-2.5,14-2.5-2.5-11.3,5.1-5-2.5-18.8h0Z"/>
      <path id="path2206" class="cls-8" d="M375.7,1347l8.9,11.3-6.4,7.5-7.6-5-10.2,1.3-5.1-5-11.4,6.3,2.5,10,7.6,8.8,3.8-6.3,5.1,2.5-1.3,6.3,5.1,2.5-1.3,7.5-7.6,7.5,5.1,5-5.1,1.3-1.3,11.3-7.6-3.8,2.5,11.3,10.2,13.8-11.4,21.3,12.7,8.8-2.5,7.5-2.5,10,11.4,8.8-2.5,11.3,7.6,12.5,1.3,13.8,5.1,3.8-11.4,3.8,1.3,7.5,5.1,3.8-5.1,21.3,12.7,1.3,2.5,10-10.2-2.5v6.3l7.6,8.8,7.6,1.3v11.3l8.9,7.5,1.3,16.3,11.4-2.5-8.9,12.5h-11.4l-1.3,10,3.8,12.5,11.4,20-3.8,2.5-1.3,30,8.9,11.3,1.3,16.3,1.3,8.8,15.3,7.5,11.4-5,7.6,15-2.5,6.3,7.6,7.5-5.1,11.3-11.4,12.5,15.2,6.3,15.3-3.8-2.5-6.3h8.9l1.3-7.5-6.4-3.8,5.1-7.5v-25l-5.1-2.5,10.8-8.8,8.3-23.8,7.6-7.5-3.8-11.3-10.2-18.8-10.2-20-3.8-8.8,8.9-8.8h-21.6l12.7-17.5,6.4-13.8,5.1-31.3-12.7-20v-6.3l7.6-6.3-12.7-8.8,1.3-23.8,11.4-6.3-11.4-21.3,1.3-28.8,7.6-8.8,6.4,11.3,7.6-10-2.5-6.3-7.6-1.3-5.1-5,5.1-10,2.5,5,6.4,2.5,2.5-8.8,6.4-3.8-1.3-6.3-11.4-18.8-12.7-6.3-6.4-11.3-2.5-3.8-10.2,7.5-8.9,1.3-7.6-7.5-3.8,2.5-5.1-11.3,7.6-2.5-11.4-11.3,10.2,2.5-5.1-15-7.6-5-1.3,8.8h-20.3l-17.8-11.3h0Z"/>
      <path id="path2208" class="cls-8" d="M397.3,1713.6l-11.4,5,2.5,10,7.6,11.3-6.4,21.3,1.3,7.5,10.2,2.5,11.4,16.3,10.2,1.3,3.8-7.5-1.3-7.5-5.1-6.3-8.9-1.3-8.9-7.5,1.3-21.3-6.4-23.8h0Z"/>
      <path id="path3186" class="cls-3" d="M489.5,1436.4l-4.4,1.9-1.9,9.4-6.4-3.1-2.5-6.9-7,11.3,5.1,5.6,8.3.6,3.2,7.5-7.6,10-6.4-10.6-8.3,7.5-.6,26.9,12.1,23.8-12.1,6.3-1.3,23.2,12.1,9.4-7,4.4-.6,6.9,13.3,21.3-5.7,30-17.8,31.9,21-.6-8.3,8.8,22.2,46.9,5.1,12.5,8.3,2.5.6,8.1-13.3,2.5-10.2,16.9,5.7,5,3.8,11.3h5.7l1.9,10,3.8,12.5,15.9,1.3,9.5-14.4,5.1-3.1,5.1-9.4-2.5-5.6-3.2-7.5-12.1-7.5,9.5-5,17.2-17.5,1.3-13.8.6-15.6h5.1l8.9-32.5.6-25.7-5.7-23.8,17.2-16.9,3.8-8.1,5.7-1.3,7.6-12.5v-15.6l-11.4-33.2-6.4-3.1v-15l-8.9-18.8-2.5-21.3,5.1-11.9,10.2-10,6.4-21.9,5.1-4.4,4.4,3.1,9.5-9.4,4.4-8.8-1.9-10-3.8-3.8v-8.1l13.3-.6,8.3-6.9,5.1-26.3-29.2-10-12.7,11.3-14.6-8.8-6.4,8.1-6.4,3.8-14.6-1.9-5.7-3.8-10.2-19.4-9.5,3.8,3.2,10-9.5,11.3-15.9,7.5-1.9,5,5.1,5.6-1.3,24.4-14.6-6.9,1.3-6.3-5.7-2.5-.6,4.4-11.4,10-8.3-1.3,8.9,15,12.7,5.6,9.5,16.3.6,10h0Z"/>
      <path id="path4157" class="cls-3" d="M477.4,1766.2l-2.5,22.5,14,8.8,3.8-13.8-15.3-17.5h0Z"/>
      <path id="path5128" class="cls-4" d="M537.6,1120l8.1,1.8.9,6.2,5.4,2.7,8.1-4.4-9-5.3,3.6-4.4,13.5,5.3,1.8-5.3,4.5.9,2.7,10.6,7.2.9,14.4-14.2,2.7,15,12.6,1.8,2.7-7.1,3.6,6.2,8.1.9,3.6-6.2-10.8-5.3v-20.4l9,3.5,1.8-6.2h12.6l.9-6.2h2.7l7.2,1.8,2.7,7.1,26.1,5.3,9,10.6h7.2l4.5,10.6,27.9,4.4,16.2,11.5,8.1,14.2.9,16.8h-7.2l-.9,13.3-7.2,6.2,9.9,6.2-4.5,11.5-5.4,16.8-6.3-2.7-9.9-6.2-4.5,12.4-4.5-.9-.9-6.2h-5.4l-6.3-9.7-8.1-.9,6.3,8-7.2.9-9.9,6.2-.9-9.7h-8.1l-5.4,4.4-4.5-7.1-8.1-.9-15.3,15-20.7.9-1.8,5.3,8.1,4.4-.9,4.4-2.7,4.4-11.7,9.7h-9l-4.5-5.3h-13.5l-4.5-8,9-9.7-11.7-2.7-2.7-9.7v-16.8l-6.3-4.4,5.4-5.3,14.4,10.6-5.4-9.7-9.9-15,.9-12.4h-2.7l-4.5-8-7.2-6.2-21.6-.9-.9-3.5,5.4-4.4h6.3l.9-3.5-9.9-8.8-4.5-15h0Z"/>
      <path id="path6099" class="cls-8" d="M640,1342.1l.9-5.3-12.6-7.1-6.3-15.9-18-17.7,12.6.9,7.2-17.7,1.8-9.7-9-3.5-10.8,8-1.8-1.8,2.7-8v-4.4h5.4l16.2-10.6,1.8-8-9-5.3,1.8-6.2,17.1.9,17.1-14.2,8.1.9,6.3,5.3,5.4-4.4,6.3.9,1.8,9.7,8.1-5.3,9.9-.9-5.4-9.7,5.4.9,7.2,10.6h4.5l2.7,7.1h3.6l3.6,13.3-4.5,15-11.7,6.2s3.6,8,0,8h-11.7l-5.4,19.5,10.8,6.2,4.5-8,6.3-3.5,11.7,7.1,4.5,4.4,9.9-8.8,11.7,6.2-4.5,3.5-.9,8.8,11.7,3.5-4.5,1.8v11.5h-9.9l-3.6,8-10.8,4.4v8l-3.6.9v4.4l-7.2,5.3-3.6,14.2-3.6,5.3-.9,3.5-9,1.8h-12.6l-1.8,9.7h-2.7l-9.9-6.2-14.4.9-12.6-7.1-1.8-6.2,8.1-7.1-13.5-8.8.9-15h0Z"/>
      <path id="path7070" class="cls-4" d="M625.6,1346.5l14.4-5.3-1.8,15.9,14.4,5.3-9,8.8,1.8,8.8,12.6,8.8,16.2-5.3,10.8,12.4,1.8,24.8-12.6,5.3-7.2,3.5-1.8,12.4h18l3.6,3.5v19.5l7.2,17.7-5.4,8.8,7.2,23-14.4-7.1-10.8-5.3-3.6,3.5,19.8,14.2v5.3h-5.4l-9,10.6v23l-10.8,17.7-3.6,10.6-1.8,21.2,10.8,15.9,3.6,19.5-14.4,19.5,5.4,12.4-1.8,23,7.2,19.5v10.6h-7.2v10.6l-25.2,15.9-9-7.1-21.6-1.8-12.6,3.5,23.4,17.7-5.4,10.6h-19.8l-14.4-3.5,9,17.7-12.6,3.5-14.4-5.3,5.4-12.4-10.8-15.9v-14.2l-1.8-14.2,3.6-28.3-3.6-15.9,9-24.8,1.8-30.1-7.2-26.5,21.6-17.7,12.6-8.8,3.6-28.3-14.4-28.3-5.4-5.3v-12.4l-9-17.7-3.6-23,16.2-26.5,7.2-21.2h10.8l12.6-14.2v-12.4l-7.2-5.3v-10.6l19.8,1.8,5.4-14.2,1.8-17.7h0Z"/>
      <path id="path8041" class="cls-3" d="M591.8,584.9l17.8-18.8-1.3-11.3,8.9-10,8.9,1.3,7.6-10-1.3-12.5-6.4-11.3v-21.3l12.7-8.8-6.4-3.8v-8.8l14,10-3.8,20,7.6,7.5-1.3,10,8.9,6.3h8.9l6.4-8.8,11.4,2.5,7.6-1.3v18.8l-2.5,2.5-7.6-5-3.8,17.5-7.6,7.5,3.8,8.8,10.2-1.3-1.3,6.3-5.1,6.3-1.3,10,11.4,8.8-1.3,7.5-8.9,5,1.3,5h-6.4v6.3l6.4,12.5,1.3,7.5,7.6-1.3,6.4,7.5-2.5,7.5,8.9,3.8,29.2,7.5,2.5,8.8,16.5-13.8,24.1,11.3-1.3,15-11.4,12.5-8.9-1.3h-20.3l-11.4,2.5-19.1,22.5-6.4-8.8-2.5-3.8-8.9-3.8v7.5l-10.2,6.3-5.1-3.8-3.8,7.5,3.8,7.5,7.6,5-2.5,5-3.8-1.3-5.1,11.3h-6.4v8.8l-7.6,2.5v13.8l-6.4,2.5-10.2-1.3v-11.3l-7.6-6.3,10.2-1.3,3.8-26.3-10.2-11.3,7.6-1.3,1.3-8.8-11.4-7.5-5.1-1.3-2.5,5-7.6-8.8h3.8l2.5-6.3-1.3-6.3-8.9,1.3-10.2-11.3-1.3-10,6.4-1.3-1.3-11.3-5.1-6.3,1.3-6.3-5.1-5,5.1-5v-11.3h-8.9l7.6-8.8-6.4-3.8,3.8-8.8-2.5-13.8h0Z"/>
      <path id="path2215" class="cls-9" d="M636.3,967.8l10.2-16.3-1.3-15-5.1-11.3-7.6-2.5v-5l3.8-3.8-3.8-5,2.5-15,1.3-22.5-17.8-18.8,8.9-11.3-17.8-16.3,11.4-12.5,2.5-15-8.9-7.5,8.9-6.3,3.8,2.5,6.4-10,11.4,3.8,1.3-6.3,5.1-8.8,3.8-6.3,2.5-6.3,5.1-3.8,6.4-8.8,6.4,1.3v-5l-8.9-7.5-1.3-6.3,1.3-6.3,3.8,5,12.7-7.5,1.3-7.5,7.6,3.8,10.2,13.8,15.3-22.5,12.7-5,7.6,3.8,1.3,11.3h11.4v21.3l10.2,15v6.3l-6.4,8.8-1.3,7.5,8.9,20,26.7,16.3-6.4,2.5-3.8,8.8,11.4,20,1.3,8.8-3.8,6.3,8.9,22.5,8.9,3.8,6.4,2.5,2.5,3.8-10.2,5v11.3l-7.6,2.5-6.4,5-5.1,13.8,1.3,18.8-8.9,1.3-5.1-5-1.3,6.3h-3.8l1.3,8.8-14,13.8-10.2,6.3h-3.8l-11.4-7.5-7.6,7.5h-3.8l-7.6-5v8.8l-6.4,6.3-2.5-10-5.1-2.5-11.4,12.5-7.6,2.5-6.4,6.3-3.8-7.5-5.1,8.8h-7.6l-7.6-6.3-2.5,3.8-5.1-7.5-2.5-15h0Z"/>
      <path id="path3189" class="cls-3" d="M635,969.1l-20.3,6.3-12.7,1.3,1.3,12.5,11.4,13.8,15.2,13.8,1.3,7.5,5.1,6.3-1.3,12.5,14,18.8,15.3,10,15.3,3.8,6.4,7.5h-14l10.2,10,6.4-3.8,6.4,12.5,22.9,6.3,7.6-6.3v-13.8l16.5-2.5,11.4-5,29.2,5-7.6-21.3,12.7-13.8-25.4-5-8.9-11.3-6.4-13.8-8.9-5-6.4-16.3-12.7-6.3,10.2-8.8-24.1-1.3-2.5-10-6.4-2.5-12.7,12.5-3.8-2.5-8.9,10-3.8-6.3-5.1,11.3-7.6-2.5-6.4-5-3.8,5-5.1-7.5-3.8-16.3h0Z"/>
      <path id="path4160" class="cls-8" d="M717.6,1108l6.4-7.5v-12.5l21.6-2.5,7.6-5,28,6.3-6.4-22.5,12.7-11.3-21.6-6.3-6.4-1.3-12.7-23.8-10.2-5-3.8-16.3-14-8.8,10.2-7.5-21.6-2.5,1.3-6.3v-7.5l10.2,7.5,11.4-8.8,15.3,7.5,11.4-5,7.6,12.5,10.2-5,10.2-2.5,3.8,6.3,6.4-18.8,11.4,17.5-10.2,8.8,8.9,2.5,19.1,2.5,1.3,23.8,10.2-2.5,6.4,6.3h8.9l6.4-5h6.4l1.3,10v8.8l-2.5,7.5,11.4,32.5,5.1,5-5.1,2.5-21.6,10,8.9,15-3.8,13.8-11.4-10-3.8,6.3-3.8,16.3-8.9-2.5,5.1-15-11.4-6.3-6.4-7.5-19.1-3.8-7.6,11.3-1.3,6.3-1.3,17.5-6.4,7.5-8.9-5-1.3,10-3.8,6.3-12.7-6.3-1.3-11.3-3.8-12.5-10.2-6.3-21.6-7.5h0Z"/>
      <path id="path5131" class="cls-4" d="M853.9,1323.5l-18,5.3-10.8,7.1-3.6,8.8-12.3-9.2-9.3-12.1,5.4-10.6,7.2-10.6-10.8-10.6-9-15.9-12.6-8.8-5.4-23,16.2-12.4,12.6-23,10.8-15.9,18,1.8,16.2,12.4,7.2,12.4h27l5.4,12.4,1.8,12.4,5.4,19.5-7.2,15.9-10.6,8,6.9,10.7-23.3,6-7.2,19.5h0Z"/>
      <path id="path6102" class="cls-3" d="M750.7,1171.8l16.5,1.3,10.2,8.8,11.4,5,25.4,7.5-5.1,8.8-17.8,28.8-16.5,11.3,3.8,22.5,15.2,11.3,7.6,17.5,12.7,8.8-14,18.8,10.2,8.8,3.8,7.5-6.4,5h-14l-15.2-3.8,1.3-16.3,1.3-15-6.4-2.5-3.8,6.3h-16.5l-10.2-6.3v-5l6.4-2.5-11.4-7.5-10.2,8.8-12.7-10h-7.6l-7.6,10-11.4-7.5,7.6-18.8,15.3,1.3-2.5-7.5,11.4-6.3,3.8-16.3-6.4-11.3,6.4-12.5,17.8,7.5,6.4-26.3-5.1-10,6.4-5v-15h0Z"/>
      <path id="path7073" class="cls-4" d="M875.2,1301.9l-10.2,1.5-6.4,11.8,5.1,10.3,14-1.5,10.2,11.8,5.1-7.3-2.5-13.2-5.1-8.8-10.2-4.4h0Z"/>
      <path id="path2229" class="cls-3" d="M748.1,971.6l20.3-17.5-2.5-10h5.1v-7.5l7.6,7.5,7.6-1.3-1.3-21.3,3.8-13.8,17.8-7.5-2.5-11.3,11.4-5-3.8-3.8,7.6-2.5,8.9-1.3,3.8-7.5,7.6,8.8,7.6-1.3,5.1,3.8,3.8-21.3,12.7-1.3,3.8,5,15.3,6.3v6.3l10.2,10h11.4l2.5-3.8h10.2l14,8.8,7.6,3.8-7.6,5,1.3,11.3,5.1,10-3.8,8.8-1.3,7.5,7.6,7.5-14,2.5-5.1-5-3.8,3.8,5.1,2.5,2.5,23.8-6.4,15-6.4,1.3,3.8,6.3-7.6,12.5-10.2,7.5-6.4-5-12.7-15-1.3,6.3-7.6-1.3-10.2,21.3-6.4-5-5.1,3.8-10.2,2.5-7.6-7.5-10.2,2.5v-25h-17.8l-10.2-3.8,8.9-10-6.4-10-3.8-1.3-7.6,13.8-3.8-7.5-10.2,5-8.9,5-17.8-11.3h0Z"/>
      <path id="path3201" class="cls-4" d="M731.6,673.7l-1.3-8.8-20.3-5-17.8-6.3,2.5-7.5-6.4-7.5-6.4,1.3-1.3-7.5-6.4-8.8-3.8-10,8.9,1.3v-6.3l7.6-5,1.3-6.3-8.9-7.5-2.5-8.8,6.4-7.5,1.3-10-10.2,1.3-3.8-7.5,10.2-7.5,2.5-17.5,5.1,6.3,5.1-5v-18.8l8.9,7.5,12.7,7.5,6.4,3.8,16.5,6.3,14,3.8,19.1,2.5,14,6.3h8.9l3.8,6.3v11.3l1.3,13.8-2.5,8.8,15.3,7.5-5.1,8.8-12.7-2.5-8.9,12.5,7.6,6.3-5.1,7.5,3.8,10,8.9,5-5.1,2.5-7.6-2.5,1.3,6.3,6.4,5-6.4,12.5-16.5-1.3-10.2-5-14-6.3-16.5,15h0Z"/>
      <path id="path4172" class="cls-8" d="M807.8,880.2l-11.4-5-10.2-21.3,5.1-5v-12.5l-12.7-18.8,2.5-8.8,8.9-2.5-19.1-10-7.6-7.5-10.2-17.5,1.3-7.5,7.6-8.8v-6.3l-11.4-16.3,1.3-21.3-11.4-1.3-3.8-10,12.7-2.5,11.4,2.5,11.4-13.8v-12.5l6.4-3.8,8.9,2.5,8.9-11.3-8.9-6.3v-7.5l7.6,2.5,7.6-1.3-10.2-5-5.1-11.3,5.1-7.5-6.4-6.3,8.9-12.5,12.7,5,5.1-10-10.2-3.8-5.1-6.3v-31.3l-1.3-5,6.4-1.3,6.4,5h11.4l3.8,7.5,26.7,5,12.7-5,15.3-6.3,16.5,2.5,6.4-3.8,10.2,5,8.9-7.5,6.4,3.8-2.5,6.3-6.4,17.5-1.3,10-6.4,5,10.2,11.3-1.3,7.5-8.9,1.3-5.1,7.5-2.5,10-5.1,1.3-5.1-13.8-3.8,5-7.6-2.5-3.8,2.5,10.2,7.5,2.5,10-2.5,7.5h2.5l6.4,12.5h8.9l-1.3,13.8,6.4,5-3.8,5h8.9l8.9,7.5,12.7,2.5,5.1-3.8,11.4,3.8-2.5,7.5-6.4-1.3,2.5,8.8,5.1,2.5,2.5,2.5-6.4,7.5-1.3,12.5,10.2,8.8,8.9,5,2.5,16.3,7.6-5,1.3,5,10.2,6.3,2.5,5-7.6,12.5-8.9,8.8-8.9-3.8-5.1-8.8-7.6,15-5.1-10-7.6,13.8-10.2,1.3-8.9-7.5h-11.4l-3.8,10,11.4,8.8,12.7,7.5-1.3,16.3-6.4,5-1.3,11.3,6.4,13.8,3.8,7.5-8.9-2.5-11.4,5h-12.7l-10.2-7.5,1.3-7.5-17.8-6.3-1.3-5-12.7-1.3-5.1,20-5.1-2.5-6.4,2.5-7.6-8.8-3.8,7.5-21.6,3.8h0Z"/>
      <path id="path5143" class="cls-4" d="M942.6,895.2l-14-12.5-3.8-13.8-2.5-7.5-1.3-10,8.9-5,1.3-16.3-25.4-17.5,3.8-5v-6.3l10.2,1.3,10.2,8.8,8.9-1.3,8.9-12.5,6.4,6.3,5.1-12.5,10.2,8.8,11.4-5,8.9-12.5,6.4-10,28-5-17.8,2.5,14-2.5h16.5l8.9,2.5,12.7-8.8,12.7,2.5,5.1,8.8,14-8.8,7.6-6.3h14l-2.5,10,11.4,12.5v8.8l-3.8,6.3-1.3,3.8-17.8,10,10.2,2.5,2.5-3.8,8.9,2.5,5.1,10-1.3,6.3-8.9,5,12.7,8.8,2.5,7.5-8.9,1.3-3.8,5,6.4,5v7.5l-8.9,2.5-15.3,1.3-3.8,6.3,7.6,3.8,2.5,5-6.4,3.8-15.3,3.8-15.3,3.8-3.8,10-16.5-1.3-12.7,12.5v3.8l7.6,8.8,10.2,2.5,2.5,8.8-2.5,6.3-6.4,5s7.6,3.8-1.3,6.3-11.4,3.8-11.4,3.8l-6.4-6.3-3.8-8.8-11.4,1.3-7.6-8.8h-10.2l-1.3-10,7.6-6.3-15.3-3.8-3.8-10-8.9-1.3-6.4-12.5-7.6-7.5-3.8,1.3-2.5,2.5-10.2,2.5h0Z"/>
      <path id="path6116" class="cls-9" d="M989.6,777.6l-10.2-3.8-1.3-8.8-8.9,3.8-2.5-12.5-11.4-6.3-6.4-8.8-1.3-12.5,8.9-8.8-11.4-6.3v-7.5l5.1,1.3,5.1-7.5-14-5-2.5,5h-12.7l-8.9-8.8h-11.4l5.1-6.3-5.1-5v-12.5l-8.9-1.3-5.1-13.8h-3.8l1.3-5-1.3-11.3-11.4-7.5h14l2.5-6.3,5.1,15h6.4l2.5-11.3,3.8-6.3h6.4l5.1-10-11.4-11.3,7.6-3.8-2.5-7.5,5.1-8.8,6.4-15,10.2,1.3,3.8,3.8,21.6-13.8,7.6,11.3,33,1.3,3.8-3.8,10.2,5,16.5-13.8,1.3,6.3-3.8,1.3-1.3,23.8,5.1,5-2.5,2.5-7.6,1.3-2.5,6.3,10.2,2.5-5.1,6.3-1.3,12.5,6.4,11.3v17.5l15.2,3.8,10.2,10,24.1,1.3,6.4,10v11.3l5.1,10,5.1-10,6.4-1.3,5.1,8.8-3.8,10-8.9,2.5v12.5l6.4,3.8,7.6,1.3,10.2,3.8,5.1,6.3,3.8,5-7.6,8.8-10.2,7.5-14,1.3-21.6,13.8-3.8-6.3-15.2-3.8-11.4,7.5-8.9-1.3-17.8,1.3h-15.2l-15.3,8.8h0Z"/>
      <path id="path2226" class="cls-10" d="M1120.5,783.8h0Z"/>
      <path id="path2228" class="cls-3" d="M1111.6,767.6v-10l17.8-15-7.6-12.5-16.5-5-8.9-5,2.5-11.3,7.6-3.8,3.8-8.8-5.1-8.8-3.8-2.5-8.9,12.5-5.1-8.8,1.3-10-7.6-11.3-21.6-2.5-8.9-11.3-17.8-2.5v-16.3l-5.1-11.3v-13.8l6.4-6.3-12.7-3.8,2.5-5,12.7-1.3-6.4-7.5,2.5-23.8,2.5-6.3,20.3-3.8h14l17.8,3.8,34.3-6.3,31.8,16.3,5.1-6.3,15.3,5,16.5,10h11.4l5.1-5,8.9,2.5,19.1-10v10l6.4,1.3,3.8,7.5,19.1-5,7.6,1.3-2.5,7.5,10.2,8.8,1.3,11.3-6.4,7.5v3.8l14,13.8-1.3,5-3.8,1.3v3.8l7.6,3.8v10l-7.6,15v3.8l7.6,10-12.7,2.5-6.4,7.5,7.6,16.3-7.6,2.5,7.6,11.3-11.4,22.5-19.1-2.5-1.3,6.3,3.8,3.8-5.1,3.8-5.1-6.3h-10.2l-16.5-3.8-5.1,5,5.1,5-8.9,7.5-17.8-13.8-1.3-7.5-10.2-1.3-11.4,10-11.4,6.3,1.3,10-2.5,6.3-7.6-5-11.4,10-10.2,2.5-11.4-13.8h0Z"/>
      <path id="path2230" class="cls-8" d="M1266.6,745.1l14-23.8-8.9-11.3,7.6-1.3-6.4-17.5,8.9-7.5h10.2l-10.2-12.5,8.9-15,1.3-12.5-10.2-6.3,6.4-6.3-12.7-15v-5l5.1-5v-12.5l-10.2-8.8,1.3-6.3-7.6-6.3,3.8-6.3h3.8l11.4,3.8,7.6-8.8,38.1,1.3,22.9-3.8,8.9,7.5,7.6-10h20.3l14,5,11.4,13.8,5.1-1.3,5.1,3.8,5.1-2.5,8.9,5v6.3l6.4,1.3,15.3,7.5,10.2,2.5,3.8-3.8h5.1v10l14,3.8,12.7,7.5-2.5,7.5,5.1,11.3,11.4,3.8-5.1,6.3,11.4,1.3,5.1,7.5-1.3,18.8h-5.1l-5.1-2.5-7.6,7.5-15.2-1.3-21.6-3.8-12.7,3.8-10.2,6.3,8.9,10-1.3,8.8-11.4,21.3h-8.9l-19.1,2.5-5.1-10h-6.4l-1.3,8.8-5.1,16.3-12.7,10-6.4,2.5-15.3,3.8-6.4-5-7.6,5-8.9-1.3-3.8-6.3-8.9,5-6.4-6.3-7.6,8.8-10.2,13.8-20.3,1.3-3.8-8.8-12.7-1.3,5.1-7.5-10.2-7.5h0Z"/>
      <path id="path3203" class="cls-9" d="M1098.9,889l7.6-2.5-5.1-7.5-5.1-2.5,2.5-7.5,15.3,1.3,8.9-3.8v-8.8l-5.1-6.3,8.9-2.5-1.3-7.5-8.9-10,5.1-6.3,1.3-8.8-2.5-5-6.4-3.8-7.6,3.8-8.9-3.8,17.8-6.3,6.4-17.5,12.7-8.8,8.9-8.8,8.9,10,3.8-7.5-3.8-8.8,8.9-12.5,16.5-5h6.4l8.9,7.5,10.2,15,6.4-10v-3.8l6.4-5,5.1,2.5,20.3-2.5,5.1,11.3,6.4-2.5-5.1-6.3v-6.3l16.5,2.5,15.3,3.8-7.6,11.3,12.7,1.3,2.5,6.3-8.9,10-8.9-6.3-7.6-1.3-3.8,2.5,7.6,12.5,7.6,5h-7.6l-8.9,6.3-2.5,20-2.5,36.3,7.6,21.3-7.6,21.3-5.1,3.8v3.8l6.4,5v5l-5.1,2.5v26.3l-16.5,10-17.8,2.5-11.4-8.8h-14l-12.7-6.3h-11.4l-2.5,7.5,7.6,10-2.5,8.8-6.4,8.8-3.8,12.5-19.1-5v-8.8l3.8-2.5-2.5-10-10.2-21.3,12.7-3.8-10.2-5v-15l14,3.8v-7.5l-11.4-5,17.8-12.5v-7.5l-11.4-2.5-11.4,20-10.2-7.5-19.1-7.5h0Z"/>
      <path id="path4174" class="cls-4" d="M1250.1,897.7l8.9-23.8-8.9-20,6.4-57.6,7.6-5,14,1.3-10.2-5-12.7-15,6.4-3.8,8.9,1.3,8.9,8.8,7.6-10,19.1,1.3,20.3-25,6.4,6.3,7.6-3.8,3.8,6.3,12.7,1.3,5.1-5,5.1,5,17.8-3.8,17.8-10,6.4-26.3h6.4l3.8,10,17.8-3.8h12.7l-2.5,8.8-3.8,8.8-8.9,16.3-3.8,22.5-19.1,12.5-2.5,22.5,6.4,8.8v7.5l-8.9,17.5h-16.5l-25.4-3.8-10.2,2.5,10.2,8.8,2.5,10-6.4,2.5-2.5-6.3-1.3-5-7.6-1.3-8.9,8.8,5.1,5v27.5l-6.4,7.5-2.5,25h-8.9l-6.4-13.8-10.2-8.8,5.1-5-10.2,2.5h-11.4l-3.8-7.5-7.6,1.3h1.3v23.8l5.1,7.5-6.4,5-6.4-2.5-3.8-6.3-11.4-7.5-11.4-18.8h0Z"/>
      <path id="path2231" class="cls-8" d="M903.2,1015.4l12.7-11.3,5.1-7.5-5.1-8.8h7.6l5.1-13.8v-13.8l-2.5-12.5-6.4-3.8,5.1-3.8,6.4,7.5,11.4-2.5h3.8l-7.6-8.8,3.8-16.3-3.8-8.8v-12.5l5.1-5,7.6,1.3,8.9-7.5,11.4,18.8,8.9,3.8,6.4,10,12.7,5,1.3,3.8-7.6,3.8,6.4,7.5-8.9,2.5,14-1.3,7.6,8.8,11.4-3.8,2.5,12.5,7.6,3.8-2.5,3.8-7.6,12.5,3.8,11.3-6.4,2.5-7.6,20-5.1,3.8-2.5,6.3-1.3,2.5-16.5-1.3-8.9,3.8h-7.6v-2.5l-8.9-1.3-3.8,2.5-1.3,16.3-7.6,12.5-11.4-10-1.3-6.3-2.5,8.8-10.2-2.5-3.8-3.8,7.6-3.8-3.8-8.8-8.9,3.8-2.5,6.3-3.8-7.5,8.9-12.5-15.2-3.8h0Z"/>
      <path id="path3204" class="cls-10" d="M860,1126.7h0Z"/>
      <path id="path3206" class="cls-4" d="M860,1106.7l-11.4-17.5,29.2-10-15.2-36.3,3.8-8.8v-11.3l8.9-23.8,7.6,2.5,1.3-6.3,15.2,18.8,17.8,7.5-8.9,8.8,2.5,7.5,14-8.8,5.1,6.3-8.9,8.8,12.7,3.8,15.3,5-1.3,5-3.8,11.3-8.9,7.5-2.5,11.3-8.9-2.5h-6.4l-2.5,8.8v12.5l-16.5,7.5-6.4,6.3-6.4,7.5-10.2-1.3v-7.5l-8.9,6.3-7.6-6.3,1.3-12.5h0Z"/>
      <path id="path4177" class="cls-3" d="M969.2,1089.2l-15.3-6.3v-3.8l-12.7-10,3.8-10,11.4-13.8,1.3-17.5,8.9-5,3.8,5h11.4l3.8-3.8,21.6,2.5v-8.8l7.6-2.5,5.1-21.3,10.2-2.5-6.4-11.3,11.4-16.3,14-6.3-1.3-5,7.6-7.5-2.5-12.5-7.6-1.3-7.6-13.8,10.2-12.5,17.8,2.5,6.4-10,21.6-7.5,21.6,6.3,11.4,7.5,14-20,10.2,2.5v7.5l-16.5,11.3,10.2,6.3v6.3l-12.7-3.8-1.3,15,7.6,5-8.9,2.5,6.4,20,6.4,8.8v3.8l-5.1,2.5v13.8l-14,6.3,5.1,12.5-10.2,2.5-7.6,15,7.6,8.8,1.3,6.3-6.4,5-2.5,10,5.1,10-7.6,10-5.1-3.8h-8.9l-6.4,5,1.3,15,6.4,2.5,3.8-5,3.8,2.5v16.3h-5.1l-8.9-7.5-2.5,3.8-10.2-10v-10h-5.1l-1.3-5-10.2-2.5,6.4-5-14-11.3-20.3-1.3-8.9,7.5h-15.3l-6.4,1.3,2.5,10-11.4,2.5-14-10-7.6,5,1.3,3.8,3.8,3.8-6.4,10h0Z"/>
      <path id="path2235" class="cls-9" d="M765.8,1155.4l5.4-19.5,10.8,5.3,7.2-8.8v-15.9l9-19.5,18,5.3,18,12.4-5.4,17.7,10.8,1.8,5.4-19.5,21.6,14.2,18,3.5,3.6,8.8,7.2,5.3v12.4l-1.8,10.6-9,14.2-3.6,14.2-12.6-14.2h-23.4l-18-5.3h-14.4l-16.2-3.5-30.6-19.5h0Z"/>
      <path id="path3207" class="cls-9" d="M835.9,1185.5l32.4,7.1-3.6,17.7-28.8-24.8Z"/>
      <path id="path2237" class="cls-9" d="M891.2,1131.9l2.7,5.8,4.5,7.5,2.2,13.7,17.5-7.5,16.6-4.4-7.6-14.2-8.1-13.7-16.2.9-11.7,11.9h0Z"/>
      <path id="path3208" class="cls-8" d="M924,1104.5l-1.3,11.9,7.6,9.7,2.2,5.8,4.9-.9,6.7-10.2,7.6-12.8-3.6-9.3.4-10.6-7.3-8.5-7.6,14.3-12.1-3.1-.4,9.3,2.7,4.4Z"/>
      <path id="path4179" class="cls-8" d="M942.8,1133.7l11.2-20.4,4-6.2-5.4-8.8,1.8-15,14.4,6.2,6.3-9.3-3.1-5.3-.9-4,5.8-3.5,14.8,9.7,11.2-3.1-1.3-9.3,6.7-1.8,14.8.4,8.1-7.5,19.3,1.3-3.1-.9,11.2,6.2,6.7,5.8-5.4,4.4,9.4,3.1,1.8,4.4h4.9l-.9,9.7,10.3,9.7,2.2,4.4-.4,11.5,3.1,7.5,10.3,10.6-.4,7.1,6.3,2.2-3.1,2.7.4,5.3,13,10.2,6.7,21.7,6.7,21.7,1.1,7.5-1.6,5.4.9,4.4,9,4.9-3.6,3.1-.4,4,3.1,6.6,2.7,3.5-.9,4.4,1.8,34.1,4.5,5.8,4.9,9.7-1.3,11.1-9.9,5.8-12.6-6.6-10.8.4-16.2-2.2-8.1-5.3-8.1-.4-9.4,5.3-3.1-2.2h-9l-11.7-5.8-5.8-10.2-.4.9-7.2-.4-4.9-7.1,8.5-2.2,5.4-7.5-.9-15.5,5.8-9.7-6.7-6.2-1.3-9.7-8.1-9.7-3.6-8-13.5-9.7-1.8-8.8-9.4-6.2-3.6-17.3-18-4.9-13,11.1-4.9-3.1-4.9,10.2h-5.4l-12.1-6.6v-8.4h-.4l-5.8-6.2-8.5-8.4,7.2-4-.4-8.4,4.9-8h0Z"/>
      <path id="path5150" class="cls-3" d="M909.5,1329.5l-12.7-21.3-5.1-12.5,6.4-17.5,8.9-15,11.4-12.5,3.8-12.5-5.1-10v-8.8l-8.9-5-8.9-2.5v-8.8l-7.6-3.8,6.4-12.5,2.5-12.5,1.3-10,12.7-3.8,8.9-3.8,7.6-1.3,14,12.5,1.3,8.8,14,6.3,6.4-8.8,5.1,5,12.7-16.3,21.6,6.3,2.5,16.3,11.4,7.5,1.3,11.3,12.7,11.3,11.4,15-1.3,8.8,10.2,8.8-7.6,7.5,1.3,16.3-3.8,8.8h-8.9l-5.1,2.5-7.6-5-14,1.3-6.4-10h-6.4l-7.6,3.8-3.8,12.5-2.5,8.8-17.8,6.3h-6.4l-12.7,7.5h-2.5l-3.8-7.5h-3.8l-3.8,5-1.3,12.5v6.3l-7.6,8.8-12.7-3.8h0Z"/>
      <path id="path6121" class="cls-4" d="M919.7,1332l3.8,12.5,16.5,6.3,2.5,10,5.1,10,16.5,13.8,6.4,23.8,11.4,26.3,5.1,20,22.9,22.5,7.6,13.8,17.8,6.3,20.3-15-3.8-17.5-14-22.5,1.3-7.5-20.3-30-1.3-20,12.7-6.3,3.8-15v-21.3l-12.7-8.8-15.3-6.3-1.3-5,10.2-3.8-5.1-8.8,6.4,1.3,12.7-28.8-7.6-3.8h-12.7l-5.1-10-14,2.5-7.6,25-20.3,6.3-2.5-2.5-16.5,8.8-5.1-7.5h-3.8l-3.8,3.8v23.8l-10.2,3.8h0Z"/>
      <path id="path2242" class="cls-3" d="M674.4,1631l-2.5-18.8-7.6-10,1.3-18.8,10.2-17.5-2.5-11.3v-17.5l8.9-10h5.1l-6.4-6.3-15.2-23.8,17.8,10,11.4,10-1.3-11.3-5.1-13.8,6.4-8.8-6.4-17.5v-18.8l-5.1-5-17.8-2.5-1.3-13.8,20.3-7.5v-21.3l-1.3-5,2.5-3.8,1.3-8.8,19.1,2.5,6.4-8.8h1.3l8.9,11.3-1.3,12.5h6.4l7.6,11.3h7.6l2.5,7.5,19.1,3.8,8.9,2.5-1.3,6.3-5.1,1.3v6.3l-8.9,6.3-2.5,10-14,8.8,7.6,7.5v10l-12.7,2.5v25l20.3,3.8,2.5,2.5-2.5,6.3-12.7,12.5-7.6-6.3-6.4,3.8-7.6-3.8,1.3,15-7.6,11.3,1.3,10,7.6-3.8,2.5,15-3.8,7.5-3.8,17.5-8.9,16.3-8.9,1.3-15.3,16.3h-12.7Z"/>
      <path id="path3218" class="cls-4" d="M725.2,1557.2l-6.4,5-2.5-10,8.9-11.3-3.8-18.8,7.6,7.5,8.9-5,5.1,5,15.2-10,1.3-7.5-20.3-6.3-1.3-23.8,12.7-3.8v-8.8l-8.9-10,14-7.5,1.3-10,11.4-6.3-1.3-3.8,6.4-2.5,1.3-6.3-8.9-5,8.9-7.5,5.1-2.5,2.5,7.5h7.6l5.1-2.5,10.2,11.3-3.8,5-1.3,6.3,2.5,3.8h7.6l3.8,6.3,21.6,3.8,1.3,5-6.4,1.3-3.8,6.3,14,2.5,1.3,6.3-11.4,2.5s2.5,7.5-2.5,7.5-10.2-5-10.2-5l-3.8,5-7.6-1.3-3.8,7.5-2.5,7.5-8.9,3.8-14,8.8-8.9,6.3-1.3,8.8-2.5,15-10.2,6.3-5.1,11.3-6.4,7.5-17.8-5h0Z"/>
      <path id="path4189" class="cls-9" d="M768.4,1510.9l16.5-8.8,16.5-7.5,5.1-13.8h7.6l2.5-3.8,15.2,3.8,2.5-8.8h8.9l-1.3-7.5-15.2-2.5,3.8-7.5,6.4,1.3-1.3-6.3-20.3-2.5-5.1-6.3-10.2-1.3,1.3-7.5,5.1-3.8-11.4-13.8h-8.9l-5.1-6.3-16.5,10-20.3-3.8-1.3-5h-5.1l-7.6-12.5h-8.9l1.3-12.5-7.6-10v-15l11.4-12.5,1.3-6.3,11.4-6.3,2.5-6.3,11.4-1.3v-15l15.3,1.3,5.1-7.5,6.4,2.5-1.3,30,17.8,7.5,10.2-2.5,6.4-3.8,7.6,5,3.8-8.8,15.3-7.5,17.8,3.8,17.8,10,12.7,11.3,15.2,6.3,15.3,6.3,11.4,10,7.6,17.5-7.6,8.8-12.7,6.3-21.6,15-11.4,11.3-1.3,8.8-15.3,2.5,8.9,13.8-3.8,10,1.3,11.3,5.1,7.5-15.3,1.3-14,7.5v8.8l-2.5,8.8-8.9-2.5-7.6-1.3-16.5-7.5-8.9,5-1.3,6.3-15.3,6.3-1.3-11.3-19.1,1.3h0Z"/>
      <path id="path2245" class="cls-8" d="M771.2,1509.3l18,1.8-1.8,8.8,18-5.3v-3.5l10.8-7.1,12.6,5.3-3.6,14.2-12.6,1.8-12.6,17.7,5.4,14.2-3.6,10.6-18,3.5-7.2,12.4-1.8,14.2,5.4,7.1,16.2-15.9,9-3.5,7.2,3.5,30.6,1.8,1.8,12.4-18,17.7-5.4,10.6,12.6,7.1v10.6l-12.6,21.2-10.8,12.4v26.5l-18,21.2,1.8,19.5-16.2,5.3-14.4,8.8-16.2-3.5-12.6-10.6-23.4-5.3,5.4-8.8-7.2-8.8s-7.2-19.5,1.8-19.5,21.6-7.1,21.6-7.1l-12.6-5.3-12.6-1.8,1.8-17.7,9-10.6-5.4-8.8-5.4,12.4-9,1.8-1.8,12.4,5.4,5.3-9,10.6-14.4-23-3.6-17.7v-24.8h0l18-8.8,9-10.6,7.2,3.5,12.6-26.5,5.4-14.2-3.6-15.9,18,1.8,12.6-15.9,10.8-7.1,1.8-14.2,3.6-15.9h0Z"/>
      <path id="path3216" class="cls-3" d="M828.7,1656.2l3.6-17.7-12.6-7.1,19.8-21.2,5.4-5.3-3.6-14.2-27,1.8-9-5.3-25.2,14.2-3.6-8.8,1.8-17.7,23.4-5.3,3.6-10.6-7.2-15.9,14.4-15.9,10.8-1.8,5.4-14.2,16.2,1.8,5.4-15.9,25.2-7.1,1.8-12.4,12.6,12.4,10.8,14.2-1.8,17.7,14.4,5.3,9,28.3-12.6,7.1v15.9l-10.8,21.2-7.2,19.5-3.6,10.6,3.6,24.8-32.4,10.6-30.6-8.8Z"/>
      <path id="path4187" class="cls-3" d="M834.1,1665l18,8.8,9,8.8,1.8,14.2-5.4,15.9-9,12.4-19.8-8.8-5.4,12.4-5.4,17.7-12.6,5.3,3.6-19.5,7.2-14.2v-15.9l7.2-14.2,10.8-23h0Z"/>
      <path id="path4190" class="cls-3" d="M870.1,1673.9l16.2-10.6,5.4,10.6-1.8,12.4-10.8,12.4-9,8.8v-33.6h0Z"/>
      <path id="path4192" class="cls-3" d="M889.8,1704l-16.2,15.9-5.4,15.9,14.4,7.1,10.8-12.4-3.6-12.4v-14.2h0Z"/>
      <path id="path5169" class="cls-8" d="M895.2,1642l16.2-17.7,14.4-21.2,1.8-31.9-1.8-23-7.2-19.5-7.2-19.5v-19.5l-12.6-10.6-12.6-14.2,1.8-15.9,10.8-17.7,16.2-8.8,7.2-8.8,25.2-1.8,5.4,19.5,10.8,38.9,18,21.2,12.6,15.9,7.2,10.6-1.8,19.5-5.4,5.3v23l-7.2,15.9-3.6,12.4-3.6,15.9v28.3l-12.6,8.8-7.2,14.2-21.6,7.1-1.8,10.6-10.8,5.3-14.4,8.8s-5.4-1.8-5.4-8.8-5.4-15.9-5.4-15.9l9-12.4-14.4-14.2h0Z"/>
      <path id="path5171" class="cls-8" d="M906,1716.4l9-12.4,10.8,14.2-7.2,7.1-12.6-8.8Z"/>
      <path id="path5173" class="cls-8" d="M1022.8,1558.9l-7.2,23-9,26.5v24.8l18,19.5v-46l9-23,1.8-12.4-12.6-12.4h0Z"/>
      <path id="path5175" class="cls-8" d="M933,1689.8l-5.4,14.2h18l-12.6-14.2Z"/>
      <path id="path6152" class="cls-3" d="M1020.1,1382l10.2-12.5,5.1-20-10.2-12.5-17.8-12.5,2.5-12.5,15.2-27.5,20.3,7.5,20.3,17.5,20.3-7.5,12.7,2.5,28,7.5,2.5,10-2.5,12.5v10l-7.6,22.5,22.9-2.5h12.7l-10.2,15v12.5l5.1,17.5-15.3-7.5-15.3,5-28-2.5-15.3-10-7.6,10s-7.6,7.5-17.8,2.5c-10.2-5-28-22.5-30.5-25h0Z"/>
      <path id="path6154" class="cls-3" d="M1045.5,1437.1h28l12.7,15,10.2,17.5-7.6,15-17.8,7.5-12.7-2.5-2.5-22.5-10.2-30h0Z"/>
      <path id="path6156" class="cls-3" d="M1088.7,1422.1l33,2.5,15.3,12.5-2.5,15-22.9-10-22.9-20h0Z"/>
      <path id="path6158" class="cls-3" d="M1134.5,1497.1l-25.4-7.5v-32.5l20.3,10,7.6,12.5-2.5,17.5Z"/>
      <path id="path6160" class="cls-3" d="M1040.4,1509.7l33,2.5,10.2,22.5,2.5,20,10.2,12.5-2.5,27.5-5.1,27.5-17.8,12.5-15.2,17.5-7.6-2.5,2.5-25,2.5-27.5,2.5-25-2.5-25-12.7-37.5Z"/>
      <path id="path7138" class="cls-4" d="M1150.4,1404.9l-7.2-10.6,1.8-10.6,10.8-19.5-12.6,1.8-16.2-3.5-5.4,5.3,3.6-14.2-1.8-12.4,3.6-10.6-5.4-21.2,19.8,5.3,10.8-8.8,10.8,3.5,7.2-7.1-5.4-15.9-3.6-10.6v-10.6l3.6-14.2,1.8-12.4,16.2,3.5,10.8,17.7,10.8,21.2,3.6,15.9v14.2l12.6,17.7-1.8,12.4,14.4,5.3-19.8,1.8,1.8,19.5h-14.4l-10.8,7.1-5.4,15.9-12.6,17.7v12.4l-7.2-3.5v-8.8l-14.4-3.5h0Z"/>
      <path id="path2436" class="cls-9" d="M1137.9,1417.3l16.2,5.3,3.6,12.4-5.4,1.8-14.4-19.5h0Z"/>
      <path id="path2438" class="cls-9" d="M1148.6,1452.7l10.8,19.5,7.2,10.6v7.1l-3.6,1.8-3.6,17.7,5.4,19.5,16.2,17.7,10.8,5.3v10.6l1.8,3.5h14.4l9-10.6,3.6-10.6v-10.6l-3.6-10.6-28.8-47.8-1.8-10.6-37.7-12.4Z"/>
      <path id="path2440" class="cls-9" d="M1303.2,1610.2l-10.8-7.1-3.6-21.2-1.8-19.5v-7.1l-12.6-19.5-9-24.8-14.4-12.4-10.8-15.9-7.2-14.2v-5.3l-7.2-8.8-9-7.1-27-19.5,5.4-8.8-12.6-12.4,1.8-10.6,5.4-21.2,18-7.1h7.2l1.8-17.7h14.4l12.6,3.5,7.2-8.8,21.6-5.3,10.8,5.3,3.6,10.6-7.2,12.4,9,12.4,9,17.7,9,15.9,7.2,12.4v-14.2h14.4l7.2,5.3v15.9l12.6,1.8,3.6,17.7,1.8,19.5,5.4,14.2-1.8,12.4,12.6,8.8,3.6-8.8,1.8-8.8-5.4-7.1,1.8-15.9,14.4-5.3,14.4,15.9,12.6,30.1,3.6,21.2-12.6,23,19.8,14.2-3.6,14.2-1.8,8.8,5.4,21.2,1.8,8.8v8.8l5.4,8.8-3.6,10.6,3.6,17.7,10.8,21.2-5.4,10.6-5.4,7.1,5.4,12.4-12.6,3.5-10.8-3.5,3.6-10.6h-16.2l-10.8,10.6-19.8,3.5-10.8,10.6-18,10.6-3.6-14.2,9-12.4-14.4-12.4v-15.9l-10.8-14.2-3.6-24.8-9-8.8-5.4-28.3h0Z"/>
      <path id="path4385" class="cls-10" d="M1350.5,1447.1h0Z"/>
      <path id="path4387" class="cls-10" d="M1332.7,1432.1h0Z"/>
      <path id="path4391" class="cls-8" d="M1350.5,1444.6l17.8-22.5v-17.5l7.6-25,35.6-25-10.2-47.6,25.4-12.5-5.1-22.5-12.7-32.5,5.1-20-17.8-17.5,25.4-30-30.5-67.6-15.3,2.5-17.8-30h-7.6l-10.2,10,10.2,42.5,5.1,27.5-7.6,10v15l-15.2-5-17.8,15-17.8,30-7.6,22.5,12.7,22.5,2.2,31.7-3.1,8.1-9.3.3v7.5l-20.3,25,15.3,12.5-5.1,10,2.5,10,15.3,32.5,15.3,20,2.5-10,17.8,2.5,2.5,15,12.7,12.5h0Z"/>
      <path id="path7308" class="cls-4" d="M1439.5,1742.4l-10.2,12.5-17.8-7.5-5.1-10-15.2-22.5,7.6-10h12.7l5.1,10,17.8,2.5v-10l7.6-20-7.6-12.5-5.1-25-2.5-12.5-5.1-25-5.1-17.5,5.1-25,15.3,5,15.2-7.5h25.4l15.3,10,22.9,12.5,12.7,27.5,12.7,35-5.1,10,15.3,32.5,15.3,42.5,2.5,12.5-2.5,27.5v17.5l-2.5,20,2.5,25,7.6,27.5,2.5,27.5,2.5,22.5,12.7,22.5-12.7,5-12.7,15-7.6-5-2.5-12.5-7.6-17.5,2.5-10-7.6-2.5-7.6,5-12.7,2.5-15.3-5-2.5-10-10.2-25-7.6-5-10.2,12.5-5.1,10-10.2-2.5-12.7,22.5-7.6,2.5-7.6,10,2.5,20-7.6,17.5-2.5-25-7.6-20-2.5-10,15.3-17.5,10.2,10,7.6-15-10.2-20-10.2-17.5,5.1-10-12.7-12.5-5.1-15-7.6-20,12.7-12.5h20.3v-15h12.7v-7.5l-15.3-17.5h0Z"/>
      <path id="path8279" class="cls-10" d="M1368.3,1507.1l-10.2-10"/>
      <path id="path8281" class="cls-3" d="M1353.1,1469.6l-5.1-25,12.7-15,10.2-17.5,2.5-30,38.1-27.5-2.5-15-5.1-27.5,22.9-17.5-5.1-20-7.6-32.5v-17.5l-17.8-25,22.9-30-10.2-25-17.8-45,5.1-7.5,20.3-20h12.7l7.6,12.5,5.1,20,5.1-17.5,5.1-10,12.7,5-7.6,17.5,5.1,17.5,5.1,12.5,5.1,45,12.7,17.5,7.6,15-5.1,10,7.6,7.5,2.5,10-17.8,12.5,2.5,20,2.5,17.5,2.5,12.5,10.2,12.5-7.6,40,10.2,20,20.3,10-5.1,12.5,7.6,30,15.2,15,2.5,20,5.1,25-7.6,5,7.6,25,5.1,30,5.1,25v15l5.1,20,5.1,20v22.5l-12.7-5,7.6,27.5,10.2,40,7.6,25-10.2,17.5-5.1-12.5-7.6-22.5-7.6-25-12.7-25,2.5-7.5-5.1-20-10.2-35-10.2-10-25.4-17.5-33-7.5-22.9,10-15.3-12.5-10.2-15,7.6-20-2.5-20-12.7-25-15.3-22.5-7.6,2.5-10.2,15,7.6,20-5.1,10-10.2-12.5-5.1-27.5h0Z"/>
      <g id="g4653">
        <path id="path5362" class="cls-3" d="M1302.2,1719.9l25.4-5,5.1,25-7.6,22.5-15.3,25,2.5-17.5,2.5-35-12.7-15Z"/>
        <path id="path5364" class="cls-3" d="M1337.8,1742.4l28-15,12.7-10,12.7-2.5,17.8,30,20.3,10,7.6-2.5,5.1-12.5,12.7,17.5v7.5h-12.7l-2.5,17.5h-22.9l-10.2,12.5,10.2,25,20.3,20-7.6,12.5,12.7,20,10.2,12.5-5.1,17.5h-10.2l-2.5-10-17.8,20,5.1,22.5,16.2,18.5,2.5,12.5-12.2,14.5,11.1,20,18.8,23.5-11.1,14,12.6,20,5.2,15.9-4.9,9.9,7.3,16.2,10.2,25-2.5,12.5-7.6-7.5-10.2-27.5-12.7-15-10.2-17.5-7.6-17.5v-15l-43.2-50.1-5.1-40v-17.5l-7.6-17.5-15.3-20-2.5-10,12.7-15,2.5-17.5,5.1-15,5.1-22.5-2.5-27.5-10.2,22.5-12.7-7.5,10.2,17.5,7.6,20-12.7,25,2.5,2.5-25.4-2.5,2.5,12.5h-15.3l-2.5-12.5,7.6-22.5,5.1-20-12.7-10,17.8-67.6h0Z"/>
        <path id="path3682" class="cls-23" d="M1349.4,1791l25.4-5,5.1,25-7.6,22.5-15.3,25,2.5-17.5,2.5-35-12.7-15Z"/>
      </g>
      <path id="path15672" class="cls-18" d="M838.2,1090.2l-6.2-3.9-5.5,4.2,1.8-7.1-5.7-3.9,7.3-.5,2-6.7,2.7,6.8,6.9-.2-5.6,4.7,2.3,6.6Z"/>
      <path id="path15674" class="cls-18" d="M535.1,1545.8c0,3.3-2.5,6.1-5.6,6.1s-5.6-2.7-5.6-6.1,2.5-6.1,5.6-6.1,5.6,2.7,5.6,6.1Z"/>
      <path id="path15676" class="cls-18" d="M856.3,1410.9c0,3.3-2.5,6.1-5.6,6.1s-5.6-2.7-5.6-6.1,2.5-6.1,5.6-6.1,5.6,2.7,5.6,6.1Z"/>
      <path id="path15678" class="cls-18" d="M1303.3,1541.8c0,3.3-2.5,6.1-5.6,6.1s-5.6-2.7-5.6-6.1,2.5-6.1,5.6-6.1c3.1,0,5.6,2.7,5.6,6.1Z"/>
      <path id="path15680" class="cls-18" d="M1376.7,686.9c0,3.3-2.5,6.1-5.6,6.1s-5.6-2.7-5.6-6.1,2.5-6.1,5.6-6.1,5.6,2.7,5.6,6.1Z"/>
      <path id="path15682" class="cls-18" d="M255.8,821.6c0,3.3-2.5,6.1-5.6,6.1s-5.6-2.7-5.6-6.1,2.5-6.1,5.6-6.1,5.6,2.7,5.6,6.1Z"/>
      <path id="path15680-9" class="cls-18" d="M459.3,408.7c0,3.3-2.5,6.1-5.6,6.1s-5.6-2.7-5.6-6.1,2.5-6.1,5.6-6.1,5.6,2.7,5.6,6.1Z"/>
    </g>
    <g id="International_Boundary">
      <path id="path11192" class="cls-14" d="M447.7,1819l-9-14.2,12.6-12.4-7.2-12.4-1.8-19.5h-19.8l-9-24.8-7.2-15.9-3.6-31.9-14.4-28.3,1.8-17.7,19.8-7.1-7.2-14.2-9-17.7-10.8-8.8-9-21.2v-15.9l-1.8-12.4,7.2-12.4-9-23-14.4-19.5,9-15.9-14.4-12.4,10.8-15.9-12.6-21.2,18-31.9-12.6-8.8-9-14.2,1.8-8.8-16.2-14.2,3.6-23,3.6-10.6-7.2-12.4,16.2-14.2,10.8-10.6,18-12.4-7.2-7.1-10.8,7.1-9-8.8-10.8-3.5-21.6-8.8-1.8,10.6h-9l-16.2-7.1-5.4-10.6-7.2-10.6,12.6-14.2,7.2-12.4,1.8-21.2h9l-7.2-14.2-25.2-17.7-10.8-12.4-7.2-10.6h-12.6v-14.2l-10.8-3.5,9-14.2-10.8-5.3,10.8-15.9-7.2-10.6,12.6-8.8-3.6-24.8,5.4-7.1,10.8,8.8,19.8-12.4,12.6-7.1-3.6-15.9-5.4-17.7,7.2-14.2-14.4-10.6-5.4-28.3,5.4-8.8,9-8.8v-15.9l-7.2-15.9-5.4-8.8-10.8,8.8-21.6,1.8-10.8-8.8-7.2,7.1-25.2-21.2-25.2-10.6-21.6-19.5-28.8-8.8-16.2,1.8-9-12.4-19.8-17.7,1.8-8.8-7.2-12.4-12.6-12.4-7.2-15.9,9-7.1,3.6-21.2,12.6-3.5v-7.1l21.6-17.7-1.8-15.9-12.6-8.8,16.2-12.4,10.8,1.8,10.8-5.3v14.2l10.8,10.6,14.4,8.8,10.8-8.8-9-3.5,5.4-14.2h18l7.2-14.2,3.6-10.6,9-3.5-9-10.6,9-12.4-3.6-14.2,9-7.1-5.4-8.8,12.6-14.2,18,8.9,10.8,5.3,7.2-8.8h16.2l19.8-5.3,21.6,10.6,10.8,3.5,12.6-14.2,21.6,15.9,10.8-1.8v-10.6l7.2-19.5,14.4-5.3,1.8-10.6-25.2-3.5h-9l-3.6-12.4-5.4,7.1-16.2-15.9-5.4-17.7,5.4-15.9-9-12.4v-14.2l-7.2,7.1-7.2-8.8v15.9h-7.2l-12.6,8.8h-14.4l-3.6-8.8-10.8,3.5-5.4-7.1-14.4,3.5-5.4-3.5-14.4-14.2,1.8-8.8-14.4-1.8-7.2-12.4,3.6-3.5v-14.2h-12.6l-12.6-14.2-3.6-8.8-10.8-1.8-5.4-12.4-14.4-5.3v-12.4l-18,12.4-7.2-7.1-9,8.8-7.2-3.5-14.4-15.9,3.6-10.6-7.2-5.3v-17.7l10.8-5.3v-12.4l18-12.4,3.6-10.6-7.2-10.6,7.2-23,12.6-3.5,3.6-12.4h10.8l18-5.3,14.4-10.6-9-10.6,9-17.7h10.8l14.4-15.9,9-8.8,9,7.1,9-3.5-9-10.6-1.8-14.2-5.4-8.8-14.4,3.5-7.2-7.1-9-3.5-7.2,12.4-7.2-3.5-1.8-15.9,12.6-14.2v-14.2l18-19.5,3.6,19.5v14.2h18l1.8,10.6,10.8-1.8-1.8,10.6h12.6l5.4,8.8,12.6-7.1,3.6,12.4,18,15.9,9-1.8,1.8,19.5,16.2-1.8v17.7h16.2l3.6,8.8-1.8,10.6,18,12.4,1.8-12.4,3.6-14.2,14.4,3.5,10.8,19.5,12.6-5.3,14.4,3.5,5.4-8.8-7.2-8.8-7.2-7.1-10.8,3.5-1.8-8.8,3.6-7.1-5.4-7.1-5.4,5.3-16.2-7.1-5.4-15.9,14.4-12.4,10.8-7.1,7.2,12.4,18,7.1,21.6,3.5,1.8,7.1-10.8,3.5,9,5.3-7.2,5.3,23.4,5.3-3.6,8.8-14.4-1.8v7.1l14.4,15.9,1.8,10.6-3.6,8.8,9,15.9,27,8.8,7.2,12.4-9,3.5,23.4,8.8,10.8,12.4,18,3.5,10.8-17.7,5.4,10.6,7.2,7.1h18l7.2,5.3-1.8,8.8,9,3.5,9-10.6-9-5.3,1.8-12.4,14.4-7.1,10.8-1.8-5.4-21.2-9,12.4-1.8-14.2-5.4-12.4,14.4-12.4,7.2-15.9,14.4,5.3-3.6,15.9,5.4,10.6,14.4-7.1,7.2,12.4,7.2,10.6,5.4,8.8-9,7.1,14.4,12.4v12.4h14.4l-10.8,10.6h0l19.8,12.4-7.2,8.8-7.2,3.5-3.6,15.9-5.4,3.5,10.8,23-7.2,3.5-3.6,10.6,9,5.3-3.6,5.3,14.4,12.4-7.2,15.9,5.4,17.7-9,8.8,1.8,28.3-7.2,14.2-1.8,14.2-3.6,8.8,7.2,7.1-1.8,8.8,16.2,12.4,5.4-7.1,18-5.3,16.2,8.8,19.8,12.4,19.8,10.6,28.8,5.3,16.2,7.1,12.6,3.5,18-3.5,3.6,15.9,18-3.5,12.6,3.5s3.6-8.8,19.8-8.8h37.7l10.8-5.3,9,7.1v3.5l30.5-9.2,15.3,7.5,40.7,2.5,25.4-12.5h63.5l20.3-7.5,22.9,17.5,12.7-7.5,22.9,10,20.3,7.5,12.7-7.5,12.7-5,15.3,7.5,15.3,5,10.2-10,15.2-5,30.5,5,33-5h17.8l22.9-2.5,7.6-5,17.8,15,17.8,7.5,10.2,15,20.3,5,12.7-5,2.5,10,30.5,17.5-2.5,15,20.3,5v17.5l-2.5,15h-30.5l-10.2,5-15.2-2.5-15.3,7.5,10.2,15-17.8,30-7.6,20-7.6,12.5,2.5,15-10.2,12.5-12.7,2.5-5.1,10,2.5,15,10.2,17.5-12.7,10-22.9,7.5-17.8-7.5-7.6,5,10.2,15-10.2-2.5h-10.2l-5.1,12.5,2.5,20-5.1,17.5-12.7,15-10.2-7.5-10.2-10-17.8-7.5-5.1,10,7.6,17.5-10.2,5-12.7-7.5-7.6-12.5-15.3-7.5,2.5,20-5.1,20-17.8,12.5-17.8-5-12.7-5-20.3-7.5-15.2,2.5,10.2,20-5.1,17.5-12.7,7.5-12.7-5s-12.7,5-17.8,15c-5.1,10-10.2,20-10.2,20l7.6,15-7.6,7.5-2.5,27.5-15.3-2.5-5.1,12.5,4,5.4,8.1,4,3.1,10.6-5.6,9-10.1,13,25.9,45.5,7.6,27.5,10.2,17.5,5.1,22.5,5.1,12.5v35l10.2,20,7.6,12.5,15.2-2.5-7.6-15-2.5-27.5,2.5-25,17.8,5,20.3,22.5v20l2.5,17.5,5.1,25,10.2,20,15.2-10,5.1,7.5,17.8-10h12.7l20.3-27.5-.4-3.5,8.1-.9,3.6-8.8-.9-11.5-1.8-10.6v-8.8l-6.3-11.5-7.2-12.4,8.1-23.9,16.2-26.5,21.6-15.9,14.4,7.1-.9-20.4,7.2-10.6-14.4-66.4,9.9-12.4h7.2l8.1,15.9,8.1,15.9,14.4-2.7,6.3-10.6,11.7-12.4,10.8-8.8h10.8l6.3,9.7,6.3,17.7,4.5-10.6,7.2-12.4,7.2,3.5,4.5,4.4-4.5,5.3-3.6,8.8,3.6,14.2,3.6,10.6,4.5,7.1,1.8,23.9v18.6l13.5,16.8,9,16.8-5.4,8.8,6.3,7.1,4.5,8-1.8,5.3-14.4,10.6.9,7.1.9,19.5,1.8,19.5,4.5,7.1,6.3,9.7-4.5,27.4-1.8,13.3,6.3,12.4,3.6,6.2,14.4,8,7.2,4.4-4.5,7.1,2.7,21.2,4.5,16.8,14.4,12.4,1.8,19.5,4.5,19.5v6.2l-8.1,4.4,9,19.5,9.9,58.4.9,20.4,10.8,38.9v20.4l-8.1-2.7-6.3-4.4,4.5,13.3,10.8,43.4,4.5,20.4,5.4,15.9-9,16.8v18.6l-2.7,13.3-.9,23.9v18.6l1.8,16.8,6.3,25.7,1.8,12.4,2.7,19.5.9,17.7,10.8,19.5,3.6,8-9.9,3.5-15.3,14.2-5.4-2.7-13.5-29.2,2.7-12.4-7.2-4.4-9,8.8-9,.9-11.7-1.8-8.1-6.2-8.1-25.7-6.3-8.8-5.4-2.7-14.4,22.1-9-4.4-9,10.6-4.5,14.2-11.7,3.5-4.5,8.8,5.4,20.4,2.7,16.2-12.6,13.9,11.7,18.6,11,11.9,7,12-9,13.3,9.9,20.9,4.5,15.4-2.7,11.5,9.2,14.3,2.5,20.2,4.5,9.7,2.7,5.1"/>
    </g>
    <g id="Dividers">
      <path id="path1604" class="cls-10" d="M633.1,775.9l11.8,3.8,1.3-5.5,9.3-15,3-7.8,4.8-3.3,5.8-8"/>
      <path id="path13274" class="cls-10" d="M1030.9,561.2v27.1l8.6,5.7h-12.9l-4.3,5.7,12.9,4.3-5.7,5.7-2.9,14.3,7.1,10-1.4,15.7,20,4.3,5.7,11.4,20,2.9,10,10-1.4,8.6,4.3,10,10-11.4,8.6,8.6v8.6l-10,2.9-4.3,14.3,17.1,7.1,12.9,4.3,4.3,11.4-15.7,12.9v17.1l10,10-7.1,17.1-17.1,8.6,4.3,4.3,11.4-4.3,7.1,5.7,1.4,8.6-5.7,5.7,10,17.1v4.3l-10,1.4,5.7,7.1v8.6l-8.6,4.3-14.3-2.9-4.3,7.1,8.6,4.3,1.4,5.7-8.6,7.1,14.3,1.4,14.3,7.1,11.4-12.9,15.7-2.9-1.4,10-14.3,8.6,10,10-1.4,5.7-12.9-4.3-2.9,12.9,11.4,7.1-11.4,2.9,2.9,11.4,2.9,8.6,8.6,5.7-5.7,10,1.4,7.1h0v1.4"/>
      <path id="path13840" class="cls-10" d="M484.6,1015.5l2,32.3,2,6.1-14.1,10.1,4,10.1,21,20,15.7-5.7,5.7,7.1,12.9,12.9,5.7,24.3,12.9,12.9-5.7,1.4-5.7,2.9v7.1h18.6l14.3,11.4,1.4,14.3,11.4,18.6-10-5.7-5.7,5.7,7.1,7.1-2.9,15.7,4.3,12.9h12.9l-10,7.1,2.9,11.4,12.9-2.9,8.6,7.1-1.4,14.3,11.4-7.1,11.4,4.3-11.4,25.7h-11.4l15.7,17.1,7.1,15.7,17.1,8.6-5.7,17.1,12.9,7.1-5.7,8.6,2.9,11.4,8.6,7.1,15.7-7.1,10,8.6,1.4,30-20,4.3v15.7h12.9l11.4,5.7-1.4,15.7,7.1,20-5.7,10,5.7,25.7-17.1-15.7-10-5.7,4.3,12.9,12.9,12.9,5.7,5.7h-7.1l-10,11.4v17.1l-12.9,24.3-5.7,24.3,10,14.3,4.3,24.3-11.4,20,7.1,15.7-5.7,22.9,8.6,14.3-1.4,10,2.9,30v1.4"/>
      <path id="path14125" class="cls-10" d="M683.6,1391.3l3-12.1,20.2,2,8.1-10.1-1-11.1,12.1-12.1,2-11.1,12.1-3,1-7.1h11.1l-1-13.1,17.2-1,7.1-7.1,5.1,3-3,29.3,18.2,7.1,17.2-5.1,7.1,8.1,5.1-13.1,18.2-7.1,14.1,4,14.1,8.1,16.2,13.1,18.2,7.1,17.2,8.1,8.1,8.1,7.1,16.2,11.1,22.2,5.1,23.2,9.1,30.3,11.1,15.2,15.2,17.2,14.1,19.2-2,16.2,22.2,22.2,12.1,14.1v14.1l-10.1,16.2-1,16.2v37.4l3,21.2h0"/>
      <path id="path14412" class="cls-10" d="M890.9,1354.1l1.4-24.3-5.7-17.1-12.9-11.4,10-2.9-7.1-11.4,10-7.1,10-14.3-5.7-17.1-7.1-28.6-2.9-21.4,4.3-15.7,15.7-24.3,30-11.4-7.1-30-1.4-27.1,10,1.4,8.6-10,1.4-14.3,15.7-21.4-1.4-12.9,11.4-10,14.3,7.1,22.9-4.3,8.6-12.9,8.6-22.9h8.6l-7.1-11.4,11.4-15.7,14.3-2.9v-7.1l5.7-5.7v-11.4l-8.6-2.9-10-12.9,15.7-15.7,14.3,2.9,7.1-11.4,27.1-4.3h1.4"/>
      <path id="path9252" class="cls-13" d="M420.7,1790.7l-10.8-1.8-7.2-15.9-10.8-7.1,5.4-23-10.8-19.5,5.4-10.6,7.2,15.9,7.2,17.7v12.4l16.2,12.4-1.8,19.5Z"/>
      <path id="path2332" class="cls-10" d="M668.7,739.9l7.3,1.8v-5l-8.3-6.8-2.8-7.5,1.8-6,3.5,4.8,13.5-7.8.3-7.5,8,4.5,11,14,14.8-23.3,12.8-4.5,6.8,3.8,3,10.3,10.5,1-.3,20.5,10.5,15.5.3,6.8-6.5,8.5-1.3,8.3,6.5,13,2.8,5.5,8.8,6.8,18,10-8.3,2.3-2.8,8.5,11.5,18.8,1.5,11.5-4.8,6.3,9.8,21.3,12.3,5.3,21-3.8,3.3-6.8,7.3,7.8,6.8-2,5.3,4,5.5-21.5,12.3,1.3,1.5,4.3,17.3,6.5-.5,7.3,10.3,8h12.8l9.8-4.5,7.5,1-6.8-19.8v-11.3l7-4.8,1.8-15.8-24.5-17.8,3.8-4.8-.5-6.8,11.5,1.5,9.8,8.3,8.8-1.5,8.3-12.8,6.3,7.8,5.5-13,10.5,8.5,10.8-5,10.3-14-1.8-3,15.3-8.5,33-1.5,9.3,1.8,11.8-8,14.5,3.8,3.8,6.5,22.8-14.3,14.3-1.8"/>
      <path id="path13557" class="cls-12" d="M646.6,481.2l-14.3-11.4-2.9,8.6,7.1,5.7-12.9,5.7v22.9l8.6,11.4,1.4,10-7.1,11.4-8.6-1.4-8.6,7.1-1.4,12.9-15.7,22.9,4.3,11.4-5.7,8.6,7.1,7.1-7.1,5.7,7.1,1.4v7.1l-5.7,7.1,5.7,5.7,1.4,7.1,5.7,14.3-5.7,1.4v14.3l7.1,10,12.9-1.4v8.6l-2.9,4.3,4.3,7.1,2.9-5.7,17.1,10-1.4,7.1-7.1,1.4,7.1,11.4-1.4,17.1-1.4,11.4-7.1-1.4,5.7,11.4-2.9,8.6-2.9,5.7h-5.7l-7.1,4.3,5.7,11.4v12.9l-11.4,12.9,14.3,11.4,2.9,7.1-7.1,5.7,15.7,21.4v17.1l-2.9,17.1,4.3,10-5.7,4.3,11.4,8.6,2.9,14.3v14.3l-8.6,12.9-25.7,5.7-11.4-1.4-4.3,11.4-4.3,14.3,11.4,7.1,5.7-2.9,7.1,12.9-5.7,1.4-10-8.6v10l18.6,5.7,11.4,7.1-18.6,7.1-14.3-1.4-18.6-7.1-25.7,10-31.4-17.1-5.7-14.3-17.1-20,2.9,17.1-7.1,5.7v1.4l-15.7-1.4-4.3-7.1-17.1-22.9-21.4,1.4-7.1-7.1-20,1.4-11.4,5.7v-1.4l-4.3-7.1h-7.1l-5.7-10,2.9-15.7-8.6-10h-15.7l-10-8.6-5.7,8.6-14.3-2.9-15.7,1.4-27.1-21.4-12.9-1.4h0"/>
      <path id="path5037" class="cls-12" d="M590.5,606.7l-4.2-3.4-21.8,2.9-2.5,8.4h-6.3l-4.2-5.9-16-2.5-9.7-10.5-4.2,7.1-10.1-5.9-3.8,5.5-10.9-1.3-2.9-12.6-9.7-3.4-13-2.5-5.9,4.2-1.3.8-7.1-5,2.1-2.9-10.9-13.9-6-3.6-4.9-9.4,4.2-11.8-12.6-3.8-19.3,2.1-6.7-9.7-12.6,3.4-12.6-9.2h0"/>
    </g>
    <g id="Texts">
      <text id="dhaka" class="cls-19" transform="translate(792 1066.2) scale(.9 1)"><tspan x="0" y="0">Dhaka</tspan></text>
      <text id="comilla" class="cls-19" transform="translate(1041.7 1204.9) scale(.9 1)"><tspan x="0" y="0">Comilla</tspan></text>
      <text id="munshiganj" class="cls-20" transform="translate(793.1 1159.1) scale(.9 1)"><tspan x="0" y="0">Munshiganj</tspan></text>
      <text id="mymensingh" class="cls-19" transform="translate(816.3 759.9) scale(.9 1)"><tspan x="0" y="0">Mymensingh</tspan></text>
      <text id="sylhet" class="cls-19" transform="translate(1345.7 669.4) scale(.9 1)"><tspan x="0" y="0">Sylhet</tspan></text>
      <text id="khagrachari" class="cls-19" transform="translate(1319.5 1275) scale(.9 1)"><tspan x="0" y="0">Khagrachari</tspan></text>
      <text id="bhola" class="cls-19" transform="translate(936 1534.5) scale(.9 1)"><tspan x="0" y="0">Bhola</tspan></text>
      <text id="borguna" class="cls-19" transform="translate(714.5 1645.7) scale(.9 1)"><tspan x="0" y="0">Borguna</tspan></text>
      <text id="shatkhira" class="cls-19" transform="translate(383.1 1434.6) scale(.9 1)"><tspan x="0" y="0">Shatkhira</tspan></text>
      <text id="gopalganj" class="cls-19" transform="translate(633.4 1318.2) scale(.9 1)"><tspan x="0" y="0">Gopalganj</tspan></text>
      <text id="magura" class="cls-19" transform="translate(484 1188.5) scale(.9 1)"><tspan x="0" y="0">Magura</tspan></text>
      <text id="chuadanga" class="cls-19" transform="translate(279.9 1126.9) scale(.9 1)"><tspan x="0" y="0">Chuadanga</tspan></text>
      <text id="pabna" class="cls-19" transform="translate(485.9 968.6) scale(.9 1)"><tspan x="0" y="0">Pabna</tspan></text>
      <text id="rajshahi" class="cls-19" transform="translate(217.4 806.9) scale(.9 1)"><tspan x="0" y="0">Rajshahi</tspan></text>
      <text id="gaibandha" class="cls-19" transform="translate(505.4 528.6) scale(.9 1)"><tspan x="0" y="0">Gaibandha</tspan></text>
      <text id="lalmonirhat" class="cls-19" transform="translate(431.4 280.3) scale(.9 1)"><tspan x="0" y="0">Lalmonirhat</tspan></text>
      <text id="rangamati" class="cls-21" transform="translate(1417.4 1442.9) scale(.9 1)"><tspan x="0" y="0">Rangamati</tspan></text>
      <text id="coxsBazar" class="cls-21" transform="translate(1337.1 1770.6) scale(.9 1)"><tspan x="0" y="0">Cox&apos;s Bazar</tspan></text>
      <text id="noakhali" class="cls-21" transform="translate(1043.4 1379.7) scale(.9 1)"><tspan x="0" y="0">Noakhali</tspan></text>
      <text id="chandpur" class="cls-21" transform="translate(940.2 1242.9) scale(.9 1)"><tspan x="0" y="0">Chandpur</tspan></text>
      <text id="patuakhali" class="cls-21" transform="translate(817.4 1562.9) scale(.9 1)"><tspan x="0" y="0">Patuakhali</tspan></text>
      <text id="khulna" class="cls-21" transform="translate(494.2 1527.1) scale(.9 1)"><tspan x="0" y="0">Khulna</tspan></text>
      <text id="pirojpur" class="cls-21" transform="translate(692.1 1434.2) scale(.9 1)"><tspan x="0" y="0">Pirojpur</tspan></text>
      <text id="madaripur" class="cls-21" transform="translate(712.4 1276.6) scale(.9 1)"><tspan x="0" y="0">Madaripur</tspan></text>
      <text id="jhinaidaha" class="cls-21" transform="translate(389.1 1159.4) scale(.9 1)"><tspan x="0" y="0">Jhinaidaha</tspan></text>
      <text id="meherpur" class="cls-21" transform="translate(243.8 1068.5) scale(.9 1)"><tspan x="0" y="0">Meherpur</tspan></text>
      <text id="manikganj" class="cls-21" transform="translate(662.9 1041.1) scale(.9 1)"><tspan x="0" y="0">Manikganj</tspan></text>
      <text id="gazipur" class="cls-21" transform="translate(834.5 945.7) scale(.9 1)"><tspan x="0" y="0">Gazipur</tspan></text>
      <text id="brahmanbaria" class="cls-21" transform="translate(995.2 1042.3) scale(.9 1)"><tspan x="0" y="0">Brahmanbaria</tspan></text>
      <text id="nator" class="cls-21" transform="translate(387.4 844.3) scale(.9 1)"><tspan x="0" y="0">Nator</tspan></text>
      <text id="sunamganj" class="cls-21" transform="translate(1148.8 662.9) scale(.9 1)"><tspan x="0" y="0">Sunamganj</tspan></text>
      <text id="jamalpur" class="cls-21" transform="translate(628.8 680) scale(.9 1)"><tspan x="0" y="0">Jamalpur</tspan></text>
      <text id="jaipurhat" class="cls-21" transform="translate(378.8 596) scale(.9 1)"><tspan x="0" y="0">Jaipurhat</tspan></text>
      <text id="nilfamari" class="cls-21" transform="translate(325.9 285.7) scale(.9 1)"><tspan x="0" y="0">Nilfamari</tspan></text>
      <text id="thakurgaon" class="cls-21" transform="translate(108.8 282.9) scale(.9 1)"><tspan x="0" y="0">Thakurgaon</tspan></text>
      <text id="habiganj" class="cls-20" transform="translate(1154.5 855.7) scale(.9 1)"><tspan x="0" y="0">Habiganj</tspan></text>
      <text id="panchagarh" class="cls-22" transform="translate(189.4 166) scale(.9 1)"><tspan x="0" y="0">Panchagarh</tspan></text>
      <text id="netrokona" class="cls-20" transform="translate(946.5 674.3) scale(.9 1)"><tspan x="0" y="0">Netrokona</tspan></text>
      <text id="tangail" class="cls-20" transform="translate(683.6 848.6) scale(.9 1)"><tspan x="0" y="0">Tangail</tspan></text>
      <text id="chittagong" class="cls-20" transform="translate(1290.2 1571.5) scale(.9 1)"><tspan x="0" y="0">Chittagong</tspan></text>
      <text id="barisal" class="cls-20" transform="translate(823.6 1394.3) scale(.9 1)"><tspan x="0" y="0">Barisal</tspan></text>
      <text id="narail" class="cls-20" transform="translate(549.4 1291.5) scale(.9 1)"><tspan x="0" y="0">Narail</tspan></text>
      <text id="narsingdi" class="cls-19" transform="translate(937.9 982.9) scale(.9 1)"><tspan x="0" y="0">Narsingdi</tspan></text>
      <text id="rajbari" class="cls-20" transform="translate(532.2 1082.9) scale(.9 1)"><tspan x="0" y="0">Rajbari</tspan></text>
      <text id="nawabganj" class="cls-20" transform="translate(86.5 728.6) scale(.9 1)"><tspan x="0" y="0">Nawabganj</tspan></text>
      <text id="bogra" class="cls-20" transform="translate(489.4 682.9) scale(.9 1)"><tspan x="0" y="0">Bogra</tspan></text>
      <text id="dinajpur" class="cls-20" transform="translate(252.2 394.3) scale(.9 1)"><tspan x="0" y="0">Dinajpur</tspan></text>
      <text id="kurigram" class="cls-20" transform="translate(563.6 368.6) scale(.9 1)"><tspan x="0" y="0">Kurigram</tspan></text>
      <text id="maulvibazar" class="cls-22" transform="translate(1291 810.4) scale(.9 1)"><tspan x="0" y="0">Maulvibazar</tspan></text>
      <text id="bandarban" class="cls-22" transform="translate(1468.1 1736.1) scale(.9 1)"><tspan x="0" y="0">Bandarban</tspan></text>
      <text id="feni" class="cls-22" transform="translate(1155.3 1341.8) scale(.9 1)"><tspan x="0" y="0">Feni</tspan></text>
      <text id="lakshmipur" class="cls-22" transform="translate(941.8 1353.2) scale(.9 1)"><tspan x="0" y="0">Lakshmipur</tspan></text>
      <text id="jhalokati" class="cls-22" transform="translate(756.7 1467.5) scale(.9 1)"><tspan x="0" y="0">Jhalokati</tspan></text>
      <text id="bagerhat" class="cls-22" transform="translate(590.5 1488.5) scale(.9 1)"><tspan x="0" y="0">Bagerhat</tspan></text>
      <text id="jessore" class="cls-22" transform="translate(412.7 1290.5) scale(.9 1)"><tspan x="0" y="0">Jessore</tspan></text>
      <text id="kushtia" class="cls-22" transform="translate(368.2 1019.8) scale(.9 1)"><tspan x="0" y="0">Kushtia</tspan></text>
      <text id="shariatpur" class="cls-22" transform="translate(797.3 1256.6) scale(.9 1)"><tspan x="0" y="0">Shariatpur</tspan></text>
      <text id="faridpur" class="cls-22" transform="translate(634.9 1169.3) scale(.9 1)"><tspan x="0" y="0">Faridpur</tspan></text>
      <text id="narayanganj" class="cls-22" transform="translate(859.3 1062.9) scale(.9 1)"><tspan x="0" y="0">Narayanganj</tspan></text>
      <text id="kishoreganj" class="cls-22" transform="translate(988.1 844.7) scale(.9 1)"><tspan x="0" y="0">Kishoreganj</tspan></text>
      <text id="sirajganj" class="cls-22" transform="translate(525.3 844.7) scale(.9 1)"><tspan x="0" y="0">Sirajganj</tspan></text>
      <text id="naogaon" class="cls-22" transform="translate(251 667.5) scale(.9 1)"><tspan x="0" y="0">Naogaon</tspan></text>
      <text id="sherpur" class="cls-22" transform="translate(708.1 593.2) scale(.9 1)"><tspan x="0" y="0">Sherpur</tspan></text>
      <text id="rangpur" class="cls-22" transform="translate(417.3 393.2) scale(.9 1)"><tspan x="0" y="0">Rangpur</tspan></text>
    </g>
  </g>
</svg>